<?xml version="1.0" standalone="no"?>
<!DOCTYPE svg PUBLIC "-//W3C//DTD SVG 20010904//EN"
 "http://www.w3.org/TR/2001/REC-SVG-20010904/DTD/svg10.dtd">
<svg version="1.0" xmlns="http://www.w3.org/2000/svg"
 width="600.000000pt" height="600.000000pt" viewBox="0 0 600.000000 600.000000"
 preserveAspectRatio="xMidYMid meet">

<g transform="translate(0.000000,600.000000) scale(0.100000,-0.100000)"
fill="#000000" stroke="none">
<path d="M0 3000 l0 -3000 735 0 c685 0 735 1 735 17 0 13 3 14 12 5 16 -16
29 -15 22 2 -3 8 0 23 6 33 9 14 10 14 7 2 -6 -17 22 -22 34 -6 3 4 18 3 32
-4 28 -13 51 -4 29 10 -18 11 -43 61 -31 61 5 0 9 -4 9 -9 0 -10 31 -24 38
-16 3 2 -1 11 -8 20 -7 8 -8 15 -2 15 5 0 15 -7 22 -15 7 -9 19 -14 26 -11 7
3 36 -20 66 -50 l53 -54 302 0 c232 0 302 3 306 13 4 10 6 10 6 0 1 -7 7 -13
15 -13 10 0 12 7 8 22 -3 14 -2 19 6 14 7 -4 12 -13 12 -20 0 -10 21 -13 76
-14 76 -1 76 -1 70 24 -8 30 2 32 14 2 l9 -23 0 23 c1 13 5 20 11 17 6 -4 8
-15 5 -26 -5 -15 -1 -19 14 -19 27 0 27 20 1 70 -11 22 -18 40 -15 40 3 0 -1
13 -9 28 -10 20 -12 32 -4 43 8 11 9 11 4 -4 -3 -11 0 -17 10 -17 8 0 12 -4 9
-10 -3 -5 -1 -18 5 -27 10 -16 11 -16 6 -1 -3 9 0 18 5 20 7 2 7 13 0 31 -18
46 -12 64 8 27 10 -19 17 -38 14 -43 -2 -4 1 -6 7 -5 7 2 24 -28 40 -66 30
-75 60 -106 60 -62 0 14 -4 28 -10 31 -5 3 -10 15 -10 26 0 11 -7 34 -16 52
l-17 32 22 -19 c26 -23 26 -20 2 35 -11 24 -16 46 -11 49 5 3 4 17 -4 31 -17
34 -46 119 -40 119 3 0 14 -20 25 -45 23 -52 42 -61 28 -13 -11 40 -6 45 17
16 33 -41 48 -44 29 -7 -11 23 -12 28 -2 17 8 -10 16 -18 18 -18 12 0 -2 95
-19 127 -11 21 -23 49 -25 63 -2 14 -8 34 -12 45 -6 17 -5 18 5 5 10 -12 11
-11 6 10 -3 14 -6 29 -6 33 0 5 -5 5 -12 1 -7 -5 -9 -2 -5 8 3 9 0 21 -6 27
-6 6 -11 35 -12 66 l-2 55 24 -36 c14 -19 22 -38 20 -41 -3 -2 -11 5 -17 17
-6 12 -14 19 -17 17 -5 -6 43 -112 68 -148 10 -14 15 -30 11 -34 -4 -5 -1 -5
6 -1 6 4 12 2 12 -3 0 -6 5 -11 11 -11 6 0 2 12 -9 28 -17 24 -62 118 -62 129
0 2 4 2 8 -1 5 -3 1 17 -7 44 -9 26 -18 47 -21 45 -3 -2 -5 36 -6 83 -1 52 2
79 7 67 6 -17 8 -16 9 10 2 26 4 23 15 -20 7 -27 13 -63 13 -80 0 -27 -1 -26
-8 8 -10 55 -17 54 -16 -2 1 -27 4 -47 9 -44 4 2 7 -1 7 -7 0 -6 5 -8 10 -5
13 8 13 -18 0 -31 -11 -11 25 -115 55 -160 18 -28 19 -38 3 -28 -7 5 -8 3 -3
-5 14 -24 30 6 17 34 -16 36 -6 31 13 -6 24 -45 30 -28 7 18 -10 21 -17 46
-14 56 2 10 -2 25 -9 33 -12 14 -20 66 -22 136 -1 20 -4 35 -8 32 -8 -4 -23
72 -18 91 1 6 0 17 -4 25 -12 32 -15 60 -6 60 5 0 9 -14 9 -32 0 -19 4 -28 9
-23 8 9 -4 107 -24 200 l-6 30 15 -25 c8 -14 15 -31 16 -39 0 -8 8 -20 18 -27
10 -8 12 -13 5 -14 -16 0 -18 -76 -2 -86 6 -3 8 -15 6 -26 -3 -11 -1 -46 5
-78 9 -49 13 -56 25 -45 15 15 16 51 2 80 -7 15 -8 10 -4 -20 4 -34 3 -37 -6
-18 -8 15 -8 38 -2 76 5 31 6 61 2 69 -12 23 -22 115 -10 98 6 -8 11 -25 11
-37 0 -13 14 -65 30 -116 17 -52 30 -104 30 -116 0 -12 6 -21 16 -21 8 0 13
-4 10 -9 -7 -10 53 -105 61 -97 4 3 -3 16 -14 29 -27 29 -46 67 -34 67 5 0 12
-6 14 -12 4 -10 6 -10 6 0 1 7 -6 24 -15 37 -13 20 -14 28 -5 39 7 9 8 17 2
20 -5 3 -11 1 -13 -5 -2 -6 -3 9 -3 33 0 23 -4 66 -8 93 -5 35 -5 46 2 35 6
-8 11 -29 11 -46 0 -43 19 -94 35 -94 7 0 16 -11 19 -24 3 -13 9 -31 12 -40 3
-9 1 -16 -5 -16 -6 0 -14 14 -18 31 -5 25 -8 28 -15 15 -6 -11 -3 -22 12 -38
21 -23 27 -44 10 -33 -28 18 -3 -21 50 -76 63 -65 83 -104 28 -53 -18 16 -34
32 -36 37 -2 4 -8 7 -13 7 -18 0 -8 -27 21 -55 17 -16 30 -33 30 -39 0 -5 -11
1 -25 14 -14 13 -25 20 -25 17 0 -4 -14 7 -30 25 l-30 33 17 -32 c10 -18 21
-33 24 -33 3 0 14 -7 25 -16 10 -8 13 -12 6 -9 -11 6 -12 3 -4 -12 19 -35 -2
-46 -32 -18 -31 28 -43 27 -28 -2 5 -10 7 -34 6 -53 -2 -23 3 -39 13 -47 26
-20 7 -26 -21 -8 -30 20 -34 14 -7 -12 17 -17 35 -63 25 -63 -3 0 -24 9 -47
21 l-42 20 43 -38 c40 -36 41 -39 23 -50 -29 -18 -20 -65 21 -103 28 -27 29
-29 8 -19 -24 12 -25 11 -7 -8 26 -30 20 -40 -8 -13 -14 13 -25 18 -25 12 0
-6 4 -13 9 -16 5 -3 7 -15 4 -26 -7 -26 7 -42 92 -105 38 -28 77 -60 85 -71 8
-10 -3 -5 -25 12 -22 17 -50 34 -62 38 -13 4 -23 12 -23 18 0 6 -3 8 -7 5 -3
-4 -17 0 -30 8 -47 31 -21 -5 55 -74 l77 -71 1428 0 1427 0 0 3000 0 3000
-3000 0 -3000 0 0 -3000z m5286 2242 c-224 -133 -379 -279 -582 -547 -61 -81
-164 -229 -164 -237 0 -2 21 -5 47 -6 40 -1 52 3 90 34 25 20 68 52 96 72 29
19 81 61 117 92 90 77 150 123 156 118 2 -3 -23 -26 -56 -53 -66 -53 -72 -67
-16 -36 20 12 36 17 36 13 0 -4 -35 -26 -78 -50 -47 -26 -108 -72 -157 -120
-70 -68 -77 -77 -56 -80 13 -2 33 5 44 15 63 56 389 273 409 273 12 0 -3 -11
-150 -112 -110 -75 -257 -180 -262 -188 -3 -5 -52 -6 -109 -4 -96 3 -102 2
-90 -13 13 -16 12 -16 -11 0 -25 18 -45 23 -37 10 3 -5 -11 -8 -31 -8 -21 0
-46 -4 -58 -8 -15 -5 -21 -3 -21 8 0 9 6 14 13 11 8 -3 16 -1 19 4 3 5 -6 12
-20 16 -19 5 -24 11 -20 22 3 9 3 13 -1 9 -4 -4 -18 3 -31 15 -28 26 -30 15
-3 -19 29 -38 16 -40 -24 -5 -19 16 -49 33 -66 37 -17 4 -29 9 -26 12 7 7 -24
32 -39 32 -5 0 -1 -6 9 -14 11 -8 17 -17 15 -20 -3 -2 -17 7 -31 20 -16 15
-28 20 -30 13 -3 -8 -11 -9 -24 -3 -44 20 -67 12 -41 -14 10 -10 9 -11 -5 -6
-10 4 -18 2 -18 -4 0 -6 -7 -8 -15 -5 -8 4 -15 10 -15 15 0 4 7 5 17 2 28 -11
5 14 -29 31 -40 20 -41 20 -28 -4 8 -15 8 -20 -1 -20 -6 0 -13 9 -16 20 -4 15
-14 20 -40 20 -19 0 -32 -4 -28 -9 3 -5 0 -13 -6 -17 -8 -4 -9 -3 -5 4 5 8 0
12 -12 12 -19 0 -32 18 -32 43 0 7 5 4 11 -5 8 -14 15 -15 36 -7 18 7 30 6 37
-1 14 -14 66 -13 66 3 0 9 2 9 8 0 5 -7 21 -14 38 -15 16 -1 34 -6 41 -10 6
-5 14 -5 17 0 6 10 78 -6 92 -21 11 -11 26 -9 19 3 -4 7 3 7 20 0 14 -5 29 -9
33 -8 11 2 63 -13 109 -33 l42 -18 85 127 c47 70 96 141 111 157 l26 30 -24
-40 c-13 -22 -59 -93 -101 -158 -42 -64 -76 -121 -76 -125 0 -7 42 -32 54 -32
2 0 32 42 66 93 225 328 414 524 644 663 39 24 76 44 81 44 6 -1 -3 -8 -19
-18z m-2616 -241 c0 -6 10 -11 23 -11 12 0 35 -7 51 -15 15 -8 35 -15 43 -15
8 0 12 -4 9 -8 -3 -5 13 -8 34 -7 21 1 37 -2 34 -7 -7 -11 24 -41 35 -34 18
12 19 -23 0 -40 -24 -21 -25 -12 -1 12 15 15 15 17 1 12 -9 -4 -22 -1 -29 5
-10 9 -11 9 -4 -3 5 -8 9 -21 9 -29 0 -8 12 -18 26 -22 15 -3 40 -16 56 -28
16 -12 54 -26 84 -30 79 -11 228 -91 308 -167 64 -59 73 -63 116 -44 11 5 41
11 68 15 26 3 47 11 47 17 0 5 16 1 36 -11 40 -24 44 -25 44 -11 0 6 -6 10
-14 10 -8 0 -18 5 -22 11 -5 8 1 10 19 7 19 -4 24 -1 20 10 -5 11 0 11 27 -3
18 -9 29 -12 26 -6 -10 15 7 14 22 -1 20 -20 15 12 -5 36 -11 12 -5 9 15 -7
36 -29 74 -43 91 -33 5 4 15 -2 20 -13 14 -25 14 -41 1 -41 -5 0 -9 5 -7 12 1
6 -7 13 -18 15 -11 1 -14 0 -6 -3 11 -5 11 -8 0 -14 -8 -6 -1 -13 24 -24 20
-8 37 -20 37 -27 0 -8 -6 -7 -17 3 -10 9 -45 24 -77 34 -52 16 -56 20 -35 26
18 6 16 6 -6 2 -16 -3 -42 -6 -58 -6 -23 -1 -25 -3 -15 -17 7 -9 21 -22 30
-29 37 -28 49 -45 39 -55 -7 -7 -22 -4 -46 7 -20 10 -34 20 -31 23 3 3 17 -2
32 -11 35 -23 42 -14 9 12 -15 12 -34 18 -43 15 -11 -3 -13 -2 -5 4 8 6 1 15
-24 32 -26 17 -34 19 -30 8 8 -22 -31 -13 -48 10 -7 10 -16 15 -20 11 -3 -3
11 -19 32 -34 58 -43 59 -44 30 -44 -16 0 -27 5 -27 14 0 7 -14 16 -31 20 -47
9 -81 7 -74 -4 4 -6 10 -8 14 -5 10 6 71 -23 71 -34 0 -13 -73 -21 -86 -10 -7
5 -36 12 -64 14 -28 2 -54 6 -57 8 -3 3 -11 3 -18 1 -7 -3 -16 0 -20 6 -5 8
-13 6 -26 -6 -11 -10 -27 -19 -36 -20 -53 -8 -65 -15 -53 -29 10 -12 9 -15 -4
-15 -10 0 -26 5 -36 10 -16 9 -18 8 -13 -6 5 -14 1 -15 -28 -9 -19 4 -35 11
-37 16 -2 5 -8 9 -13 9 -4 0 -6 -7 -2 -16 9 -25 -30 -1 -51 31 -18 27 -7 35
14 10 7 -9 18 -14 24 -12 6 3 19 0 29 -5 11 -6 17 -5 17 3 0 6 6 9 14 6 21 -8
146 32 146 47 0 14 -45 58 -77 75 -27 14 -46 14 -38 1 3 -5 -1 -10 -10 -10 -8
0 -18 7 -21 15 -13 33 -106 9 -137 -36 -12 -16 -19 -19 -34 -10 -21 11 -93 93
-133 151 -13 19 -30 41 -37 48 -12 12 -15 21 -12 38 1 8 -22 24 -34 24 -5 0
-6 -4 -3 -9 3 -5 -1 -14 -9 -21 -12 -10 -15 -9 -15 8 0 26 36 52 72 52 15 0
30 4 33 10 8 13 -64 6 -92 -8 -34 -19 -37 -47 -10 -97 23 -41 25 -55 6 -55 -5
0 -6 6 -3 14 3 9 -1 13 -13 13 -11 -1 -18 4 -17 15 1 10 -16 37 -38 60 -28 29
-37 35 -28 18 7 -14 18 -32 25 -40 6 -8 15 -24 19 -35 6 -17 3 -17 -18 5 -53
53 -74 64 -56 31 18 -35 11 -37 -10 -3 -11 18 -27 35 -35 38 -8 4 -15 11 -15
17 0 5 10 2 23 -9 12 -10 9 -4 -7 14 -30 32 -50 45 -26 17 20 -24 -6 -18 -32
8 -13 12 -32 35 -42 51 -14 22 -20 26 -27 15 -5 -8 -9 -11 -9 -7 0 3 -3 15 -7
25 -3 10 -3 15 2 11 4 -4 14 0 20 9 11 15 14 13 29 -16 20 -37 52 -72 60 -64
3 3 -8 19 -24 35 -43 42 -39 62 13 74 64 14 177 17 177 5z m-354 -107 c19 -15
19 -15 -1 -6 -11 5 -27 12 -35 15 -13 5 -13 6 1 6 8 1 24 -6 35 -15z m664 -48
c-6 -6 -14 -5 -23 3 -8 6 -23 8 -33 4 -16 -6 -17 -5 -6 9 10 13 18 14 42 5 19
-7 26 -15 20 -21z m-675 -16 c6 -4 17 -8 25 -8 13 -1 41 -5 73 -11 11 -2 67
-57 67 -66 0 -5 -11 2 -25 15 -14 13 -28 20 -32 16 -4 -4 -1 -11 7 -16 8 -6
10 -10 5 -10 -6 0 -16 5 -23 12 -9 9 -12 8 -12 -5 0 -10 12 -29 27 -43 63 -58
-11 -21 -79 40 -17 15 -22 13 -19 -6 2 -12 -7 -10 -37 9 l-27 17 20 -24 20
-23 -20 8 c-33 13 -129 19 -122 7 9 -13 -22 -20 -53 -12 l-25 6 23 8 c19 6 21
10 11 23 -15 18 2 33 39 33 12 0 22 5 22 10 0 6 -10 10 -22 11 -17 1 -14 3 11
11 19 5 45 8 58 5 13 -2 20 0 16 6 -6 10 55 0 72 -13z m735 -10 c20 -16 22
-20 8 -20 -10 0 -18 5 -18 10 0 6 -15 10 -32 11 -28 0 -30 2 -13 9 28 12 27
12 55 -10z m-508 -74 c16 -29 -7 -11 -33 27 l-23 32 23 -20 c13 -11 27 -28 33
-39z m-335 -12 c-3 -3 -12 -4 -19 -1 -8 3 -5 6 6 6 11 1 17 -2 13 -5z m428
-14 c10 -11 16 -20 13 -20 -3 0 -13 9 -23 20 -10 11 -16 20 -13 20 3 0 13 -9
23 -20z m-548 -21 c-21 -11 -44 -18 -50 -16 -7 2 4 11 23 20 51 23 72 20 27
-4z m650 -31 c-3 -8 -6 -5 -6 6 -1 11 2 17 5 13 3 -3 4 -12 1 -19z m-698 -24
c-19 -14 -33 -29 -32 -33 1 -5 -9 -14 -22 -21 -14 -7 -25 -20 -25 -27 0 -7 -7
-16 -15 -19 -8 -3 -17 -14 -20 -25 -4 -11 -11 -17 -16 -13 -6 3 -5 12 3 21 13
16 9 16 -52 -5 -10 -3 -12 -2 -5 5 6 6 27 16 48 23 20 6 37 16 37 21 0 11 61
68 73 69 5 0 15 7 23 15 9 8 20 15 27 15 6 0 -5 -12 -24 -26z m738 -14 c15
-12 20 -20 12 -20 -8 0 -22 9 -32 20 -9 11 -14 20 -11 20 3 0 17 -9 31 -20z
m1108 2 c-3 -3 -11 0 -18 7 -9 10 -8 11 6 5 10 -3 15 -9 12 -12z m-982 -111
c3 -12 0 -18 -7 -15 -6 2 -12 13 -12 24 0 23 12 17 19 -9z m872 19 c3 -5 1
-10 -4 -10 -6 0 -11 5 -11 10 0 6 2 10 4 10 3 0 8 -4 11 -10z m140 -8 c-3 -3
-11 0 -18 7 -9 10 -8 11 6 5 10 -3 15 -9 12 -12z m65 -8 c0 -2 -9 0 -20 6 -11
6 -20 13 -20 16 0 2 9 0 20 -6 11 -6 20 -13 20 -16z m174 0 c7 -19 2 -18 -19
6 -16 17 -16 20 -3 15 9 -4 19 -13 22 -21z m-1369 6 c3 -6 -1 -7 -9 -4 -18 7
-21 14 -7 14 6 0 13 -4 16 -10z m165 -11 c0 6 4 11 10 11 5 0 7 -6 4 -13 -3
-8 3 -20 12 -28 16 -12 17 -12 9 1 -7 13 -6 13 7 2 18 -15 30 -52 17 -52 -5 0
-9 5 -9 10 0 6 -6 10 -13 10 -15 0 -67 47 -67 62 0 7 5 6 15 -2 10 -9 15 -9
15 -1z m880 1 c12 -8 11 -10 -7 -10 -12 0 -25 5 -28 10 -8 13 15 13 35 0z
m130 -10 c0 -5 -7 -7 -15 -4 -8 4 -15 8 -15 10 0 2 7 4 15 4 8 0 15 -4 15 -10z
m266 -12 l19 -23 -22 18 c-12 11 -26 16 -32 13 -5 -4 -12 -2 -16 4 -13 20 32
9 51 -12z m-136 -3 c14 -8 19 -14 10 -14 -8 0 -24 6 -34 14 -25 19 -9 19 24 0z
m-777 -9 c4 -10 1 -13 -8 -9 -8 3 -12 9 -9 14 7 12 11 11 17 -5z m712 -6 c3
-5 2 -10 -4 -10 -5 0 -13 5 -16 10 -3 6 -2 10 4 10 5 0 13 -4 16 -10z m278
-11 c-6 -6 -17 -8 -24 -3 -9 5 -8 9 7 14 23 9 31 3 17 -11z m-1615 -35 c141
-46 221 -118 225 -202 2 -52 -52 -161 -109 -218 -23 -24 -44 -44 -46 -44 -2 0
-4 20 -5 44 -1 24 -8 57 -16 72 -18 34 -67 82 -67 66 0 -20 -41 -14 -47 7 -10
39 -95 32 -157 -12 -34 -24 -66 -89 -66 -137 0 -46 31 -111 64 -138 l27 -21
-88 -41 c-48 -23 -102 -44 -120 -47 -29 -5 -33 -2 -62 48 -45 78 -63 149 -63
248 0 138 40 240 123 315 104 95 239 115 407 60z m739 30 c-3 -3 -12 -4 -19
-1 -8 3 -5 6 6 6 11 1 17 -2 13 -5z m278 -4 c3 -5 2 -10 -4 -10 -5 0 -13 5
-16 10 -3 6 -2 10 4 10 5 0 13 -4 16 -10z m-300 -20 c-7 -11 -65 -10 -65 1 0
4 16 7 35 7 19 0 33 -4 30 -8z m75 0 c0 -5 -7 -7 -15 -4 -8 4 -15 8 -15 10 0
2 7 4 15 4 8 0 15 -4 15 -10z m37 4 c-3 -3 -12 -4 -19 -1 -8 3 -5 6 6 6 11 1
17 -2 13 -5z m468 -12 c-3 -3 -11 0 -18 7 -9 10 -8 11 6 5 10 -3 15 -9 12 -12z
m-415 4 c0 -2 -11 -6 -25 -8 -13 -3 -22 -1 -19 3 5 9 44 13 44 5z m1280 -32
c6 -16 15 -22 25 -18 14 6 13 8 -2 20 -24 18 -9 17 28 -1 16 -9 34 -13 39 -10
6 3 10 2 10 -4 0 -6 11 -13 25 -17 14 -3 25 -10 25 -14 0 -4 11 -11 25 -14 36
-9 137 -113 165 -171 33 -68 34 -179 3 -248 -71 -155 -259 -277 -466 -302 -48
-5 -98 11 -77 26 12 8 11 9 -5 5 -11 -3 -27 -1 -35 4 -13 9 -13 10 0 11 8 1
21 1 29 0 7 -2 10 3 6 9 -4 6 -15 8 -25 5 -10 -3 -21 -1 -25 5 -3 5 2 10 12
11 16 0 16 1 -2 9 -19 8 -19 9 2 9 12 1 25 -3 28 -9 3 -5 14 -10 23 -9 11 0
12 3 5 6 -7 2 -13 12 -13 20 0 11 -7 14 -24 9 -16 -4 -26 -1 -29 8 -3 8 -20
17 -37 21 -24 5 -28 10 -20 20 8 9 5 14 -12 19 -23 6 -23 6 7 27 22 15 24 19
9 14 -28 -7 -41 30 -16 45 15 8 14 9 -5 10 -17 0 -23 6 -23 21 0 15 5 19 15
15 8 -3 15 -1 15 4 0 6 -7 10 -15 10 -9 0 -12 6 -9 15 4 8 12 15 20 15 27 0
14 16 -23 30 -24 8 -32 15 -23 18 8 3 18 10 22 16 5 7 8 4 8 -6 0 -12 7 -18
23 -17 12 0 16 3 10 6 -18 7 -16 21 5 26 13 4 12 5 -5 6 -12 0 -25 6 -29 12
-4 8 3 10 22 7 16 -3 23 -3 16 -1 -8 3 -11 11 -8 20 3 8 6 19 6 24 0 5 12 14
28 20 15 7 22 13 15 16 -19 7 -16 24 4 21 11 -2 22 8 31 25 7 15 20 27 28 27
7 0 13 3 12 8 -5 26 15 39 55 36 23 -2 38 0 32 4 -5 4 -16 15 -24 25 -13 16
-12 16 15 2 39 -20 42 -19 36 12 -4 21 -2 25 11 20 8 -3 23 0 32 7 14 10 15
16 6 34 -9 17 -9 22 1 22 8 1 6 6 -5 15 -11 7 -26 11 -35 8 -13 -4 -14 -3 -3
5 20 14 51 2 61 -24z m-1830 -20 c0 -2 -11 2 -25 8 -14 6 -25 15 -25 20 0 5
11 1 25 -8 14 -9 25 -18 25 -20z m320 26 c0 -5 -5 -10 -11 -10 -5 0 -7 5 -4
10 3 6 8 10 11 10 2 0 4 -4 4 -10z m325 0 c4 -6 -5 -10 -20 -10 -15 0 -24 4
-20 10 3 6 12 10 20 10 8 0 17 -4 20 -10z m225 -11 c10 -5 3 -7 -20 -6 -19 2
-44 8 -55 15 -17 11 -14 12 20 6 22 -4 47 -10 55 -15z m-145 4 c-16 -3 -34 -9
-39 -14 -6 -5 -15 -9 -20 -9 -6 0 -2 7 8 15 11 8 34 14 50 14 l31 -2 -30 -4z
m300 -13 c-3 -5 -12 -10 -18 -10 -7 0 -6 4 3 10 19 12 23 12 15 0z m-1040 -20
c8 -13 -5 -13 -25 0 -13 8 -13 10 2 10 9 0 20 -4 23 -10z m384 6 c-10 -8 -89
-13 -83 -5 3 5 24 9 46 9 23 0 39 -2 37 -4z m297 -11 c31 -16 18 -19 -35 -9
-17 4 -31 10 -31 15 0 14 35 11 66 -6z m-219 -1 c-3 -3 -12 -4 -19 -1 -8 3 -5
6 6 6 11 1 17 -2 13 -5z m455 -21 c-8 -13 -22 -23 -31 -22 -12 0 -11 2 4 9 17
7 15 9 -12 9 -18 1 -33 5 -33 10 0 5 -8 11 -17 13 -10 2 9 4 43 3 61 0 61 0
46 -22z m-109 0 c-7 -2 -21 -2 -30 0 -10 3 -4 5 12 5 17 0 24 -2 18 -5z m-220
-10 c-7 -2 -19 -2 -25 0 -7 3 -2 5 12 5 14 0 19 -2 13 -5z m62 -13 c-3 -5 -16
-10 -28 -9 -21 0 -21 1 -2 9 28 12 37 12 30 0z m160 -10 c-6 -10 -53 -19 -60
-12 -8 8 38 29 52 24 7 -2 11 -8 8 -12z m222 14 c-3 -3 -12 -4 -19 -1 -8 3 -5
6 6 6 11 1 17 -2 13 -5z m-67 -14 c-8 -5 -31 -9 -50 -9 -29 0 -31 2 -15 9 11
5 34 9 50 9 23 1 26 -2 15 -9z m-914 -32 c-9 -12 -16 -26 -16 -30 0 -12 38 -9
46 3 4 8 -1 9 -17 4 -16 -5 -21 -4 -14 3 16 16 85 25 85 11 0 -7 -3 -9 -6 -6
-4 4 -17 -5 -30 -20 -13 -15 -21 -30 -18 -33 3 -3 11 3 18 13 13 17 73 43 81
35 3 -2 -20 -19 -51 -38 -39 -23 -51 -36 -42 -41 7 -5 10 -9 6 -9 -3 0 -14 -3
-24 -7 -11 -4 -15 -3 -11 4 4 6 0 14 -8 17 -12 4 -13 2 -5 -13 8 -15 5 -20
-12 -24 -12 -4 -20 -9 -17 -12 3 -3 22 2 42 10 43 18 61 19 51 3 -5 -8 3 -9
29 -5 20 3 39 2 42 -3 3 -5 -14 -10 -37 -12 -28 -2 -42 -7 -40 -15 1 -8 -8
-13 -22 -13 -14 0 -27 -4 -31 -10 -3 -5 -13 -6 -22 -3 -13 5 -15 2 -10 -11 5
-13 -1 -21 -26 -32 -31 -15 -31 -15 31 -9 34 3 62 4 62 1 0 -2 -33 -14 -72
-26 -40 -12 -77 -27 -83 -34 -5 -7 -20 -18 -32 -25 -31 -16 -29 -29 2 -23 14
2 25 8 25 12 0 5 9 6 19 3 10 -3 47 5 80 18 34 12 64 19 68 15 3 -3 1 -6 -6
-6 -7 0 -9 -5 -5 -12 5 -8 2 -9 -10 -5 -9 4 -33 1 -54 -7 -20 -7 -64 -21 -97
-31 -33 -10 -67 -25 -75 -33 -13 -13 -13 -14 2 -9 9 3 34 9 55 12 37 6 37 6
12 -8 -38 -21 -77 -29 -154 -33 -47 -2 -65 0 -55 6 13 8 13 10 -1 10 -9 0 -19
-7 -23 -15 -4 -12 3 -15 32 -16 l37 -1 -45 -12 c-34 -9 -41 -14 -27 -19 29
-11 10 -27 -32 -27 -23 0 -44 -6 -52 -16 -7 -9 -25 -14 -43 -13 -36 3 -126
-21 -126 -34 0 -5 -13 -7 -29 -5 -17 2 -28 1 -26 -3 3 -4 -7 -10 -20 -13 -15
-4 -23 -11 -19 -17 4 -8 0 -8 -14 0 -14 7 -23 8 -27 1 -3 -5 -18 -10 -33 -10
-21 0 -24 2 -12 10 8 5 11 10 7 10 -5 0 -5 6 0 13 4 6 8 18 8 26 0 8 18 20 40
27 67 22 75 26 75 34 0 5 26 14 57 21 31 7 64 20 73 29 8 8 24 14 34 12 11 -2
23 3 28 12 5 9 16 16 24 16 55 0 228 128 287 212 15 21 16 21 14 3 -1 -11 -6
-26 -11 -33 -5 -8 -3 -18 4 -25 8 -8 11 -8 7 -1 -4 6 5 22 18 34 14 13 25 28
25 34 0 6 -5 3 -11 -6 -5 -10 -15 -18 -20 -18 -6 0 -2 14 8 30 18 31 29 37 35
20 2 -5 14 0 28 11 16 14 19 19 8 15 -28 -8 -21 6 14 36 25 20 28 26 13 22
-13 -3 -28 2 -39 15 -19 21 -14 41 10 41 8 0 14 5 14 11 0 6 -7 9 -15 5 -8 -3
-15 -1 -15 4 0 9 28 16 73 19 27 1 28 0 13 -21z m1041 16 c-3 -3 -12 -4 -19
-1 -8 3 -5 6 6 6 11 1 17 -2 13 -5z m-407 -14 c-14 -4 -34 -8 -45 -8 -16 0
-15 2 5 8 14 4 34 8 45 8 16 0 15 -2 -5 -8z m65 0 c3 -5 2 -10 -4 -10 -5 0
-13 5 -16 10 -3 6 -2 10 4 10 5 0 13 -4 16 -10z m219 3 c3 -4 -15 -13 -41 -20
-69 -18 -83 -16 -43 6 37 20 72 26 84 14z m-684 -17 c0 -2 -7 -6 -15 -10 -8
-3 -15 -1 -15 4 0 6 7 10 15 10 8 0 15 -2 15 -4z m745 -6 c3 -5 2 -10 -4 -10
-5 0 -13 5 -16 10 -3 6 -2 10 4 10 5 0 13 -4 16 -10z m43 -67 c-10 -2 -26 -2
-35 0 -10 3 -2 5 17 5 19 0 27 -2 18 -5z m-151 -9 c-3 -3 -12 -4 -19 -1 -8 3
-5 6 6 6 11 1 17 -2 13 -5z m-308 -18 c-2 -2 -15 -7 -29 -10 l-25 -7 25 15
c21 12 42 14 29 2z m-342 -22 c-3 -3 -12 -4 -19 -1 -8 3 -5 6 6 6 11 1 17 -2
13 -5z m268 -4 c-11 -5 -27 -9 -35 -9 -9 0 -8 4 5 9 11 5 27 9 35 9 9 0 8 -4
-5 -9z m969 -36 c3 -8 2 -12 -4 -9 -6 3 -10 10 -10 16 0 14 7 11 14 -7z
m-1235 -19 c-49 -18 -100 -45 -117 -61 -7 -8 -19 -14 -25 -14 -6 0 3 12 20 27
34 29 107 62 138 62 12 0 6 -6 -16 -14z m281 0 c0 -2 -9 -9 -20 -15 -12 -6
-20 -7 -20 -1 0 5 8 12 18 14 9 3 18 5 20 6 1 0 2 -1 2 -4z m25 -35 c-3 -5
-12 -10 -18 -10 -7 0 -6 4 3 10 19 12 23 12 15 0z m-130 -9 c-12 -12 -85 -43
-85 -36 0 6 72 44 85 45 5 0 5 -3 0 -9z m-248 -22 c-22 -11 -41 -18 -43 -16
-5 5 56 37 71 36 6 0 -7 -9 -28 -20z m-92 -7 c-6 -5 -38 -17 -73 -27 -35 -10
-65 -22 -68 -27 -3 -4 -10 -8 -17 -8 -19 0 27 28 79 49 51 20 95 27 79 13z
m1365 -22 c0 -5 -4 -10 -10 -10 -5 0 -10 5 -10 10 0 6 5 10 10 10 6 0 10 -4
10 -10z m17 -12 c-3 -8 -6 -5 -6 6 -1 11 2 17 5 13 3 -3 4 -12 1 -19z m-1207
2 c-8 -5 -19 -10 -25 -10 -5 0 -3 5 5 10 8 5 20 10 25 10 6 0 3 -5 -5 -10z
m189 7 c-2 -1 -13 -9 -24 -17 -19 -14 -19 -14 -6 3 7 9 18 17 24 17 6 0 8 -1
6 -3z m-319 -17 c-8 -5 -24 -9 -35 -9 -16 1 -16 2 5 9 35 11 48 11 30 0z m-66
-47 c-10 -8 -35 -16 -56 -19 -21 -4 -35 -10 -32 -15 2 -4 15 -5 27 0 12 4 35
11 50 15 41 10 25 -10 -20 -25 -21 -6 -61 -27 -91 -46 -72 -46 -153 -73 -232
-78 -36 -2 -58 -1 -50 2 8 2 29 11 45 18 17 8 43 12 58 11 15 -2 27 0 27 5 0
4 8 7 18 7 27 -2 102 22 102 32 0 5 -14 4 -32 -1 -18 -5 -49 -12 -68 -15 -61
-8 -19 16 46 26 95 16 107 19 118 31 8 9 4 10 -17 7 l-28 -5 32 27 c20 16 41
25 54 23 13 -3 16 -2 8 4 -8 6 0 9 23 9 32 0 34 -1 18 -13z m205 15 c-2 -2
-17 -14 -34 -28 l-30 -25 24 28 c14 15 29 27 34 27 6 0 8 -1 6 -2z m76 -47
c-6 -5 -26 -14 -45 -19 -19 -5 -44 -13 -55 -17 -11 -3 -4 4 16 17 36 23 104
38 84 19z m-225 -7 c0 -5 -64 -34 -76 -34 -3 0 4 9 17 20 22 18 59 27 59 14z
m-1570 -14 c12 -8 12 -10 -5 -10 -11 0 -27 5 -35 10 -12 8 -12 10 5 10 11 0
27 -5 35 -10z m1655 -10 c-3 -5 -24 -14 -46 -20 -22 -6 -37 -15 -34 -19 2 -5
-3 -11 -13 -14 -9 -2 -26 -8 -37 -12 -11 -3 -7 1 9 10 21 12 25 19 16 25 -13
8 43 26 67 22 6 -2 14 2 18 8 3 5 11 10 16 10 6 0 7 -4 4 -10z m-1720 -10 c13
-6 15 -9 5 -9 -8 0 -22 4 -30 9 -18 12 -2 12 25 0z m1850 0 c-3 -5 -16 -15
-28 -21 -19 -9 -19 -8 3 10 28 23 34 26 25 11z m517 -2 c-5 -7 -17 -29 -26
-48 -15 -33 -15 -34 -9 -5 3 17 13 38 21 48 17 19 30 24 14 5z m-852 -9 c-11
-7 -5 -8 21 -3 26 4 39 2 44 -8 5 -7 5 -10 1 -7 -4 4 -35 1 -68 -7 -34 -8 -63
-13 -65 -10 -3 2 9 7 26 11 17 3 30 10 30 13 -3 15 2 22 14 22 8 0 7 -4 -3
-11z m-1721 -13 c7 -8 30 -17 52 -21 21 -4 39 -11 39 -17 0 -6 -9 -7 -22 -3
-13 4 -54 16 -92 26 -85 23 -92 29 -34 29 27 0 50 -6 57 -14z m464 -3 c-7 -2
-19 -2 -25 0 -7 3 -2 5 12 5 14 0 19 -2 13 -5z m1832 -3 c-11 -5 -31 -8 -45
-8 l-25 0 25 8 c14 4 34 8 45 8 l20 1 -20 -9z m-2341 -20 c5 0 6 -3 3 -7 -9
-8 13 -34 23 -28 4 2 15 -4 25 -15 19 -21 41 -28 30 -10 -3 6 1 10 9 10 9 0
16 -4 16 -10 0 -5 16 -10 36 -10 32 0 35 -2 23 -16 -11 -14 -9 -15 27 -9 37 6
38 5 19 -10 -13 -10 -31 -14 -50 -11 -16 2 -25 2 -18 0 7 -3 9 -12 6 -21 -5
-12 -2 -13 14 -5 12 7 24 7 34 1 7 -5 32 -7 54 -5 22 3 32 3 23 0 -10 -3 -18
-10 -18 -15 0 -5 -8 -9 -18 -9 -10 0 -37 -16 -59 -35 -44 -38 -58 -42 -67 -22
-3 6 -3 2 0 -10 3 -15 -1 -23 -15 -28 -12 -3 -25 -3 -31 0 -6 4 -9 1 -8 -6 2
-6 -13 -18 -32 -25 -33 -13 -34 -13 -12 2 32 23 27 38 -5 17 -16 -10 -30 -20
-33 -23 -10 -10 -40 -8 -33 3 4 6 0 8 -10 4 -37 -15 -52 -19 -42 -10 6 4 19
18 30 31 l19 23 -26 -10 c-16 -6 -28 -6 -30 -1 -2 6 -9 6 -17 0 -13 -7 -13
-11 0 -26 13 -16 12 -16 -14 0 l-27 18 25 23 c22 18 23 22 8 22 -9 0 -26 -9
-37 -19 -11 -10 -25 -18 -30 -18 -6 0 -1 8 11 18 15 11 20 22 14 30 -7 11 -9
11 -14 -2 -4 -9 -11 -16 -16 -16 -6 0 -8 7 -5 15 8 20 -1 19 -33 -2 -16 -10
-24 -12 -19 -5 6 9 0 11 -24 7 -20 -4 -29 -2 -25 5 3 5 17 10 30 10 13 0 27 4
30 10 4 6 -6 7 -26 3 -23 -4 -30 -3 -25 5 5 9 -5 11 -36 7 -30 -4 -39 -2 -28
5 12 8 10 10 -10 10 -20 0 -22 2 -10 10 10 7 -1 8 -37 5 -49 -4 -68 5 -43 20
6 3 10 12 10 18 0 8 -3 8 -9 -1 -6 -10 -10 -8 -14 8 -3 12 -10 19 -16 16 -5
-4 -12 -2 -15 2 -3 5 -17 7 -31 4 -15 -2 -25 0 -25 7 0 6 -5 11 -11 11 -5 0
-7 -4 -4 -10 3 -5 -1 -10 -9 -10 -9 0 -16 8 -16 17 0 9 -3 13 -7 10 -3 -4 -12
-2 -20 4 -8 7 -13 8 -13 1 0 -5 -8 -12 -17 -15 -10 -2 -27 -8 -38 -12 -17 -6
-17 -4 3 12 l23 19 -68 -1 c-37 -1 -79 -4 -93 -8 -14 -4 -7 2 15 12 68 34 181
43 480 38 154 -2 291 -7 305 -11 19 -6 21 -5 10 3 -8 6 -25 11 -37 11 -13 0
-23 4 -23 9 0 4 19 5 43 0 23 -4 46 -8 51 -9z m2186 -16 c-238 -69 -383 -130
-537 -226 -74 -45 -307 -218 -362 -267 -45 -41 -55 -40 -11 2 184 173 469 358
660 430 67 25 226 72 270 80 66 11 57 3 -20 -19z m345 -3 c-6 -5 -28 -14 -50
-21 -74 -23 -184 -83 -235 -128 -56 -49 -60 -63 -10 -37 18 9 34 14 38 11 7
-7 9 -6 -62 -41 -45 -22 -69 -43 -103 -89 -25 -34 -47 -63 -50 -66 -9 -8 19
43 39 73 11 15 15 27 10 27 -30 0 -415 -269 -577 -403 -133 -110 -168 -148
-159 -170 3 -10 10 -15 14 -12 4 3 13 -2 20 -10 20 -24 -7 -18 -32 7 -16 16
-25 18 -37 11 -28 -18 -204 -216 -280 -316 -40 -53 -75 -97 -78 -97 -23 0 215
296 324 402 185 182 515 432 779 592 33 20 92 67 130 105 74 72 134 108 244
147 70 25 90 29 75 15z m-2392 -18 c21 -3 40 -10 43 -14 6 -11 -49 0 -96 18
-19 7 -24 11 -10 8 14 -3 42 -9 63 -12z m1499 -4 c-12 -11 -27 -17 -32 -14 -6
3 -10 1 -10 -4 0 -6 -15 -10 -32 -10 l-33 1 30 8 c17 4 26 9 20 10 -10 2 52
28 69 29 6 1 0 -8 -12 -20z m148 16 c0 -2 -10 -9 -22 -15 -22 -11 -22 -10 -4
4 21 17 26 19 26 11z m-385 -25 c3 -5 -3 -10 -14 -10 -11 0 -23 5 -26 10 -3 6
3 10 14 10 11 0 23 -4 26 -10z m470 -20 c-3 -5 -12 -10 -18 -10 -7 0 -6 4 3
10 19 12 23 12 15 0z m-65 -4 c0 -2 -7 -7 -16 -10 -8 -3 -12 -2 -9 4 6 10 25
14 25 6z m-830 -41 c-13 -14 -31 -25 -39 -24 -12 0 -11 3 4 9 11 5 16 9 10 10
-5 0 1 7 15 15 35 20 37 18 10 -10z m790 21 c0 -2 -13 -9 -30 -15 -35 -12 -41
-5 -7 9 25 10 37 12 37 6z m-423 -12 c-3 -3 -12 -4 -19 -1 -8 3 -5 6 6 6 11 1
17 -2 13 -5z m-2187 -8 c0 -2 -7 -7 -16 -10 -8 -3 -12 -2 -9 4 6 10 25 14 25
6z m1117 -3 c-10 -9 -56 -10 -51 -1 3 4 17 8 31 8 15 0 23 -3 20 -7z m1313 3
c0 -2 -7 -7 -16 -10 -8 -3 -12 -2 -9 4 6 10 25 14 25 6z m-113 -12 c-3 -3 -12
-4 -19 -1 -8 3 -5 6 6 6 11 1 17 -2 13 -5z m1122 -16 c-37 -40 -96 -122 -122
-173 -33 -63 -35 -54 -4 13 33 72 118 182 139 182 5 0 -1 -10 -13 -22z m-1482
6 c-3 -3 -12 -4 -19 -1 -8 3 -5 6 6 6 11 1 17 -2 13 -5z m320 0 c-3 -3 -12 -4
-19 -1 -8 3 -5 6 6 6 11 1 17 -2 13 -5z m-2023 -16 c-5 -8 3 -9 31 -5 21 4 47
1 59 -5 20 -11 20 -11 1 -19 -15 -6 -10 -8 20 -8 41 1 141 -42 128 -54 -3 -4
8 -7 25 -7 19 0 40 -8 52 -20 11 -11 29 -20 39 -20 11 0 26 -7 35 -15 8 -8 17
-15 20 -15 3 0 49 -19 101 -41 71 -31 99 -39 108 -30 6 6 15 11 21 11 5 0 1
-7 -10 -15 -21 -16 -20 -16 69 -18 20 -1 26 -5 22 -16 -4 -11 -1 -11 14 3 10
9 33 18 50 18 17 1 31 5 31 11 0 5 6 5 13 -2 8 -6 17 -8 21 -4 4 4 4 -1 1 -12
-6 -17 -5 -18 7 -5 7 8 24 24 36 34 19 17 22 17 16 3 -7 -20 6 -22 25 -4 7 6
1 -6 -13 -27 -14 -21 -26 -44 -26 -51 0 -7 -6 -18 -14 -24 -8 -7 -14 -21 -13
-31 1 -19 12 -17 12 2 0 6 10 14 23 19 22 8 32 -4 12 -16 -5 -3 -7 -12 -3 -21
3 -8 -3 -24 -13 -36 -19 -21 -19 -21 9 -16 32 6 36 -7 5 -17 -14 -4 -18 -8
-10 -12 6 -2 9 -10 6 -16 -5 -8 -2 -8 7 1 24 22 33 13 11 -11 -12 -13 -20 -26
-16 -29 3 -4 -6 -14 -20 -23 -14 -10 -26 -21 -26 -27 0 -5 21 5 46 22 25 18
47 30 49 28 2 -2 -24 -28 -58 -57 -34 -30 -68 -63 -76 -75 l-14 -21 24 21 c91
78 171 81 98 3 -29 -31 -29 -35 2 -19 29 16 25 -15 -7 -43 -33 -28 -51 -59
-30 -51 9 3 18 15 22 26 3 11 8 17 10 15 3 -2 -3 -21 -12 -41 -19 -40 -12 -60
11 -30 17 22 20 12 5 -17 -14 -25 -27 -24 -35 1 -4 11 -11 17 -17 14 -6 -4
-14 0 -20 7 -7 11 -8 9 -6 -6 2 -11 7 -23 12 -26 5 -4 5 -12 1 -19 -5 -8 -10
-9 -14 -2 -12 20 -56 1 -70 -29 -10 -22 -16 -27 -26 -19 -9 7 -16 6 -25 -5 -7
-8 -18 -14 -24 -13 -22 5 -74 -24 -81 -45 -6 -21 -7 -21 -17 6 -11 31 -27 36
-30 10 -1 -10 -2 -25 -4 -33 -1 -8 -2 -23 -3 -33 -1 -13 -7 -16 -28 -12 -16 3
-46 8 -68 11 -103 16 -325 87 -325 105 0 4 6 10 13 12 9 4 8 8 -3 16 -8 6 -19
10 -25 10 -5 0 -4 -3 3 -6 6 -2 12 -9 12 -14 0 -12 -37 -11 -45 1 -4 6 -21 17
-39 24 -19 8 -50 30 -69 49 -20 19 -38 32 -41 30 -9 -9 -37 27 -30 38 4 7 -1
10 -12 7 -12 -2 -31 9 -49 27 -57 58 -120 136 -135 168 -9 18 -29 51 -44 74
-16 23 -26 49 -22 58 3 8 1 15 -3 15 -13 0 -40 84 -37 114 2 14 -1 26 -7 26
-5 0 -4 7 3 15 7 9 19 14 27 11 7 -3 13 -1 13 5 0 7 -10 9 -25 5 -20 -5 -25
-3 -25 13 0 10 7 24 15 31 12 10 15 9 15 -4 0 -10 -4 -14 -10 -11 -5 3 -10 1
-10 -4 0 -6 14 -11 31 -11 27 0 31 3 26 21 -5 17 -2 20 14 16 15 -4 19 -1 17
11 -2 10 18 36 47 62 28 25 52 48 53 53 2 4 11 7 20 7 8 0 12 3 8 7 -11 11 62
31 117 32 34 1 46 -2 41 -11z m1506 2 c0 -5 -5 -10 -11 -10 -5 0 -7 5 -4 10 3
6 8 10 11 10 2 0 4 -4 4 -10z m88 -17 c-8 -11 -13 -11 -19 -2 -5 9 -16 8 -43
-5 -36 -17 -76 -14 -76 5 0 12 17 12 25 -1 4 -6 16 -5 33 4 15 8 42 14 59 14
27 -1 31 -4 21 -15z m672 12 c0 -2 -10 -9 -22 -15 -22 -11 -22 -10 -4 4 21 17
26 19 26 11z m699 -102 c-40 -48 -86 -101 -101 -117 -16 -17 -58 -74 -94 -128
-59 -89 -90 -126 -65 -80 39 72 126 190 204 275 49 53 20 41 -80 -34 -147
-111 -515 -488 -561 -575 -7 -13 -20 -24 -30 -24 -10 0 -13 3 -7 8 6 4 30 32
55 62 219 271 502 539 647 614 18 9 47 34 64 56 18 22 34 38 37 35 3 -2 -28
-44 -69 -92z m-2159 53 c0 -2 -7 -7 -16 -10 -8 -3 -12 -2 -9 4 6 10 25 14 25
6z m43 -9 c-38 -15 -57 -32 -25 -24 33 8 27 0 -17 -22 -21 -11 -46 -27 -54
-35 -8 -9 -21 -17 -28 -18 -7 -2 -21 -12 -30 -22 -8 -11 -18 -15 -22 -10 -8
14 25 55 48 59 11 2 22 4 25 4 3 1 -2 5 -10 11 -21 13 -5 24 18 11 14 -8 24
-6 38 5 18 14 18 15 -3 9 -12 -3 -24 -1 -29 7 -4 7 -4 10 0 6 4 -3 26 2 49 13
23 10 49 18 57 18 8 0 1 -6 -17 -12z m57 -1 c0 -3 -4 -8 -10 -11 -5 -3 -10 -1
-10 4 0 6 5 11 10 11 6 0 10 -2 10 -4z m507 -2 c-10 -11 -108 -14 -102 -4 3 6
29 10 57 10 28 0 49 -3 45 -6z m-1762 -23 c3 -5 1 -12 -5 -16 -5 -3 -10 1 -10
9 0 18 6 21 15 7z m1615 5 c0 -2 -7 -7 -16 -10 -8 -3 -12 -2 -9 4 6 10 25 14
25 6z m-459 -56 c-13 -11 -28 -20 -35 -20 -6 0 0 9 14 20 33 26 52 25 21 0z
m-144 -15 c-15 -14 -36 -25 -45 -24 -12 0 -9 4 8 12 14 6 29 17 33 24 4 7 13
13 20 13 7 0 -1 -12 -16 -25z m-107 -35 c0 -5 -5 -10 -11 -10 -5 0 -7 5 -4 10
3 6 8 10 11 10 2 0 4 -4 4 -10z m298 -20 c-7 -10 -14 -17 -17 -15 -4 4 18 35
25 35 2 0 -1 -9 -8 -20z m106 -65 c-27 -24 -51 -42 -53 -39 -8 7 75 84 89 84
7 0 -10 -20 -36 -45z m3829 34 c32 -16 87 -70 102 -99 38 -74 45 -116 36 -232
-7 -92 -15 -127 -41 -188 -40 -94 -66 -122 -122 -129 -24 -3 -42 -10 -41 -16
3 -13 42 -15 72 -3 19 7 31 4 53 -12 15 -11 28 -16 28 -11 0 5 8 12 18 15 10
3 42 56 76 126 48 97 63 120 80 120 42 0 51 -16 51 -82 0 -106 -59 -185 -221
-294 -60 -42 -111 -88 -180 -168 -54 -61 -114 -124 -136 -139 -21 -16 -38 -32
-38 -37 0 -4 -7 -11 -16 -14 -9 -4 -13 -2 -8 5 4 8 0 8 -14 0 -12 -6 -25 -19
-30 -28 -6 -10 -16 -14 -26 -10 -9 4 -16 1 -16 -6 0 -7 -13 -20 -29 -30 -34
-20 -50 -22 -33 -5 18 18 14 32 -5 17 -15 -13 -16 -12 -11 9 5 19 4 21 -8 11
-8 -6 -18 -8 -22 -4 -4 4 -1 10 6 12 6 3 12 9 12 14 0 6 -4 8 -9 5 -10 -7 22
58 40 80 6 8 9 17 6 20 -3 4 37 50 90 103 52 53 107 112 123 131 33 42 70 113
70 135 0 18 -16 20 -23 3 -3 -7 -6 -3 -6 9 -1 34 15 64 62 117 69 76 107 146
114 208 4 43 0 69 -26 142 -40 114 -50 195 -27 219 21 20 21 20 49 6z m-2152
-32 c-10 -9 -11 -8 -5 6 3 10 9 15 12 12 3 -3 0 -11 -7 -18z m-1651 -21 c0 -2
-8 -10 -17 -17 -16 -13 -17 -12 -4 4 13 16 21 21 21 13z m-29 -59 c-6 -8 -7
-18 -3 -22 4 -5 1 -5 -6 -1 -10 6 -10 11 -1 22 6 8 14 14 16 14 3 0 0 -6 -6
-13z m3358 -92 c30 -14 84 -30 120 -35 97 -14 143 -32 167 -68 26 -37 67 -163
62 -188 -5 -30 -67 -65 -108 -62 -34 3 -35 5 -43 53 -14 79 -15 80 -98 80 -43
0 -84 6 -97 13 -71 41 -127 102 -142 156 -11 42 -11 48 6 67 22 25 51 21 133
-16z m-1629 -35 c-6 -11 -13 -20 -16 -20 -2 0 0 9 6 20 6 11 13 20 16 20 2 0
0 -9 -6 -20z m-1730 -14 c0 -2 -8 -10 -17 -17 -16 -13 -17 -12 -4 4 13 16 21
21 21 13z m3250 -106 c37 -28 73 -57 80 -65 7 -8 16 -12 21 -10 14 9 29 -67
29 -148 0 -67 3 -79 22 -95 65 -52 75 -75 70 -156 -3 -31 -64 -129 -133 -211
-40 -48 -41 -49 -35 -19 5 22 3 36 -7 46 -8 8 -18 29 -22 46 -3 18 -14 40 -23
49 -14 14 -16 43 -17 192 0 161 -2 179 -21 211 -12 19 -27 34 -34 32 -8 -2
-10 3 -6 14 5 14 4 15 -9 4 -13 -11 -14 -10 -9 4 4 10 -1 25 -14 39 -30 32
-40 66 -28 94 18 38 59 30 136 -27z m-1987 -323 c-3 -6 -2 -7 4 -4 5 4 23 -7
39 -24 16 -17 54 -49 84 -72 30 -23 57 -44 60 -47 18 -20 113 -69 154 -79 75
-19 133 -6 180 40 21 22 36 39 31 39 -4 0 0 9 10 20 10 11 15 20 12 20 -3 0 0
19 8 41 l15 41 -39 -35 c-31 -28 -56 -39 -116 -52 -42 -10 -79 -15 -82 -12
-10 11 19 206 32 217 9 8 17 7 28 -4 8 -8 17 -13 19 -10 9 8 48 13 48 6 0 -10
132 -8 148 1 7 5 12 3 12 -3 0 -7 7 -9 15 -6 8 3 23 9 32 13 12 5 15 2 11 -8
-3 -8 -1 -23 4 -34 8 -19 8 -19 4 1 -3 17 2 23 24 28 15 3 40 3 55 0 18 -3 24
-1 20 7 -5 8 -1 9 14 4 13 -4 21 -2 21 5 0 7 8 9 20 5 11 -3 20 -2 20 3 0 6 7
12 15 16 12 4 13 2 2 -14 -6 -11 -21 -23 -32 -26 -36 -12 -61 -55 -37 -66 4
-1 6 -42 4 -90 l-3 -86 -45 0 c-43 1 -71 -10 -46 -19 6 -3 12 -17 12 -31 0
-21 2 -24 10 -12 8 13 10 12 10 -4 0 -15 -6 -17 -35 -14 -35 4 -45 -5 -50 -44
-1 -10 -9 -26 -18 -36 -9 -10 -17 -23 -17 -29 0 -6 -6 -14 -12 -16 -8 -4 -7
-6 4 -6 9 -1 20 11 27 30 10 28 31 33 31 6 0 -7 -4 -6 -10 3 -8 12 -10 9 -10
-12 0 -20 -7 -28 -30 -37 -28 -9 -34 -19 -27 -38 1 -5 8 -7 15 -5 6 2 12 -1
12 -5 0 -5 32 -7 70 -5 44 3 70 0 70 -6 0 -6 -37 -13 -82 -16 -106 -7 -120 -6
-114 10 3 8 0 11 -10 7 -24 -9 -16 -30 16 -42 37 -13 39 -20 3 -18 -24 2 -28
-2 -26 -20 3 -26 -7 -29 -26 -10 -10 10 -11 7 -6 -15 6 -22 4 -28 -9 -28 -8 0
-18 -11 -22 -24 -6 -27 1 -46 17 -46 6 0 7 4 4 10 -4 6 1 7 11 3 12 -4 15 -3
10 5 -4 7 -3 12 3 12 20 0 21 -19 0 -25 -15 -5 -18 -10 -10 -18 6 -6 11 -15
11 -19 0 -5 -16 8 -37 28 -21 21 -33 28 -29 18 4 -11 9 -32 11 -49 3 -28 2
-28 -16 10 -11 22 -17 31 -14 20 8 -28 -7 -10 -40 48 -15 26 -22 47 -16 47 5
0 15 -8 21 -17 11 -18 10 -7 -5 28 -4 12 9 26 52 55 32 21 67 46 77 56 10 9
24 15 29 11 6 -3 7 -1 3 5 -3 6 2 17 11 24 10 7 19 20 19 28 1 8 5 24 10 35 7
17 5 17 -17 -4 -33 -32 -79 -64 -79 -56 0 4 -16 -2 -36 -14 -19 -12 -32 -17
-29 -11 8 13 -1 13 -26 0 -13 -8 -19 -7 -19 0 0 7 -7 7 -22 -1 -18 -10 -20 -9
-14 6 5 14 2 16 -14 12 -10 -3 -19 -2 -18 2 2 18 -4 22 -17 11 -13 -11 -14
-10 -9 4 6 16 -4 21 -35 17 -8 -2 -10 2 -5 10 5 9 2 10 -10 6 -13 -5 -17 -3
-13 7 3 8 -4 18 -19 25 -13 6 -24 18 -24 27 0 14 -2 15 -17 3 -15 -12 -16 -12
-10 3 3 10 -1 22 -11 30 -11 9 -14 10 -8 1 12 -20 -8 -15 -33 8 -12 12 -20 27
-17 35 3 8 0 11 -10 7 -9 -3 -14 1 -14 13 0 9 -3 15 -6 11 -8 -8 -44 25 -44
40 0 7 -6 10 -13 7 -7 -2 -20 9 -30 26 -10 16 -21 30 -25 30 -4 0 -16 7 -27
16 -17 13 -18 16 -5 24 12 8 10 10 -9 10 -17 0 -22 4 -17 16 3 8 2 12 -4 9
-15 -9 -72 47 -65 64 3 9 3 12 -1 9 -4 -4 -20 9 -35 30 -16 20 -33 43 -39 50
-8 8 -7 12 2 12 16 0 54 -41 50 -54 -2 -5 5 -6 14 -2 11 4 15 2 11 -8 -7 -18
23 -30 37 -16 8 8 6 9 -8 4 -13 -5 -17 -4 -13 3 4 6 2 18 -5 25 -55 59 -38 48
34 -21 48 -47 84 -89 81 -94z m96 147 c16 10 14 0 -4 -17 -13 -13 -12 -16 2
-22 10 -3 14 -3 10 1 -4 4 1 13 11 20 19 13 72 8 72 -8 0 -5 8 -4 19 2 26 14
31 13 25 -4 -5 -12 4 -14 47 -9 46 5 51 4 46 -11 -5 -14 -3 -15 13 -6 26 14
30 13 23 -7 -18 -52 -86 -56 -207 -12 -83 30 -86 32 -86 62 0 22 3 28 9 18 5
-7 14 -10 20 -7z m894 -42 c-3 -12 -9 -22 -14 -22 -12 0 -11 7 3 30 15 24 19
21 11 -8z m-41 -12 c-6 -15 -11 -19 -16 -12 -4 7 -1 18 6 26 17 19 20 14 10
-14z m-2242 -25 c-13 -14 -26 -23 -28 -20 -4 4 38 44 47 45 3 0 -6 -11 -19
-25z m2324 16 c-9 -9 -34 -9 -34 -1 0 5 9 8 20 7 10 -1 17 -3 14 -6z m-2409
-20 c3 -5 1 -12 -5 -16 -5 -3 -10 1 -10 9 0 18 6 21 15 7z m2305 -21 c0 -5 -4
-10 -10 -10 -5 0 -10 5 -10 10 0 6 5 10 10 10 6 0 10 -4 10 -10z m-25 -40 c3
-5 -1 -10 -9 -10 -9 0 -16 5 -16 10 0 6 4 10 9 10 6 0 13 -4 16 -10z m-2515
-40 c0 -5 -4 -10 -10 -10 -5 0 -10 5 -10 10 0 6 5 10 10 10 6 0 10 -4 10 -10z
m20 -53 c0 -4 -6 -2 -14 5 -8 7 -12 17 -9 22 5 8 23 -12 23 -27z m100 -2 c0
-2 -14 -3 -31 -3 -17 1 -25 4 -18 8 10 7 49 2 49 -5z m2207 -202 c-3 -10 -5
-4 -5 12 0 17 2 24 5 18 2 -7 2 -21 0 -30z m0 -95 c1 -23 -1 -28 -6 -15 -6 17
-8 17 -20 3 -15 -18 -41 -22 -41 -6 0 6 9 10 21 10 12 0 23 8 26 20 8 31 20
24 20 -12z m148 -95 c-18 -14 -18 -15 -2 -9 10 3 30 3 45 -1 24 -6 25 -7 7
-15 -13 -5 -4 -6 25 -3 43 5 44 5 20 -9 -35 -20 -76 -22 -140 -6 -45 11 -51
15 -35 22 14 6 6 7 -24 4 -30 -3 -40 -2 -30 5 12 7 12 9 -1 10 -22 3 68 16
115 17 38 1 39 1 20 -15z m-200 -53 c18 -8 18 -9 -5 -9 -14 0 -34 4 -45 9 -18
8 -18 9 5 9 14 0 34 -4 45 -9z m347 3 c-6 -2 -10 -8 -7 -13 3 -5 -3 -11 -12
-14 -29 -8 -129 -16 -113 -9 8 3 17 9 20 13 3 5 25 12 50 18 49 11 83 14 62 5z
m73 -22 c-3 -5 5 -11 17 -13 16 -3 1 -11 -49 -27 -40 -13 -78 -21 -85 -18 -8
3 -6 6 5 6 9 1 17 7 17 15 0 18 13 27 54 37 44 10 48 10 41 0z m-235 -21 c0
-5 -7 -10 -15 -10 -8 0 -15 5 -15 10 0 6 7 10 15 10 8 0 15 -4 15 -10z m330
-9 c0 -11 -168 -56 -177 -47 -3 3 1 6 11 6 9 0 31 8 49 17 26 14 66 25 110 32
4 0 7 -3 7 -8z m-726 -66 c7 -28 6 -28 -6 -10 -8 11 -20 34 -27 50 -12 30 -12
30 7 10 11 -11 23 -33 26 -50z m431 45 c4 -6 -20 -9 -67 -8 l-73 1 65 7 c36 4
66 7 67 8 1 1 5 -2 8 -8z m292 -26 c-3 -3 -12 -4 -19 -1 -8 3 -5 6 6 6 11 1
17 -2 13 -5z m-734 -44 c9 -11 13 -20 7 -20 -5 0 -14 9 -20 20 -6 11 -9 20 -8
20 2 0 11 -9 21 -20z m967 10 c-8 -6 -24 -15 -35 -21 -16 -8 -15 -6 4 10 13
12 28 21 35 21 6 0 4 -5 -4 -10z m-61 -34 c-11 -10 -163 -87 -154 -78 6 6 33
22 60 37 28 15 54 31 60 36 5 5 16 9 24 9 8 0 12 -2 10 -4z m-249 -16 c-8 -5
-19 -10 -25 -10 -5 0 -3 5 5 10 8 5 20 10 25 10 6 0 3 -5 -5 -10z m90 5 c0 -6
-57 -30 -91 -39 -13 -3 -1 5 26 18 52 25 65 29 65 21z m264 -17 c-5 -8 -1 -9
12 -5 14 5 12 2 -6 -12 -23 -19 -40 -26 -142 -68 -20 -9 -42 -13 -50 -10 -9 4
-8 6 3 6 10 1 37 12 60 26 24 14 53 25 63 25 11 0 16 3 13 7 -4 3 5 14 21 24
33 21 35 22 26 7z m-394 -8 c0 -5 -15 -10 -32 -9 -31 1 -32 1 -8 9 35 11 40
11 40 0z m-1213 -32 c-3 -8 -6 -5 -6 6 -1 11 2 17 5 13 3 -3 4 -12 1 -19z
m1453 -2 c0 -2 -21 -14 -46 -26 -37 -18 -50 -20 -67 -11 -20 10 -19 10 10 5
18 -3 34 -1 38 6 10 16 65 38 65 26z m-80 -65 c35 -6 41 -10 26 -16 -11 -5
-26 -3 -37 3 -10 7 -35 12 -54 12 -19 0 -35 4 -35 10 0 5 12 7 28 4 15 -3 47
-8 72 -13z m-1310 -56 c-8 -40 -8 -40 -9 15 0 35 3 50 8 40 5 -8 5 -33 1 -55z
m334 49 c9 -24 7 -28 -9 -14 -17 14 -20 30 -6 30 5 0 12 -7 15 -16z m1094 9
c-10 -2 -18 -9 -18 -15 0 -10 23 -7 67 8 16 6 16 5 -2 -10 -20 -17 -20 -17 5
-11 14 4 36 8 50 10 14 2 40 8 58 13 23 8 30 8 26 0 -5 -8 -1 -9 9 -5 41 17
50 17 22 1 -16 -9 -43 -19 -59 -21 -17 -2 -34 -7 -40 -13 -6 -6 5 -8 30 -5
l39 5 -45 -15 c-127 -44 -130 -44 -153 -34 -19 8 -19 9 6 4 17 -4 26 -2 23 4
-4 5 8 13 26 16 l32 7 -25 14 c-27 15 -56 9 -78 -16 -28 -30 -241 -74 -241
-50 0 6 9 10 20 10 25 0 27 17 3 22 -10 2 15 8 55 12 78 8 91 20 40 35 -23 6
-26 9 -12 10 11 1 35 -6 51 -14 25 -13 36 -13 59 -3 l29 12 -25 4 -25 4 30 13
c17 7 37 13 45 13 10 0 9 -2 -2 -5z m-824 -29 c3 -8 2 -12 -4 -9 -6 3 -10 10
-10 16 0 14 7 11 14 -7z m-294 -15 c0 -6 -4 -7 -10 -4 -5 3 -10 11 -10 16 0 6
5 7 10 4 6 -3 10 -11 10 -16z m456 -4 c3 -8 15 -17 26 -21 11 -3 17 -8 14 -11
-6 -6 -66 29 -66 39 0 14 20 9 26 -7z m-223 -15 c3 -11 1 -18 -4 -14 -5 3 -9
12 -9 20 0 20 7 17 13 -6z m652 10 c-16 -4 -41 -8 -55 -8 -23 -1 -23 0 -5 8
11 5 36 8 55 8 l35 0 -30 -8z m-108 -28 c-9 -2 -15 -7 -13 -11 3 -4 -12 -7
-32 -8 -27 -1 -30 1 -12 5 l25 5 -25 7 c-18 5 -11 7 25 7 28 -1 42 -3 32 -5z
m510 2 c-3 -3 -12 -4 -19 -1 -8 3 -5 6 6 6 11 1 17 -2 13 -5z m-1980 -26 c-3
-8 -6 -5 -6 6 -1 11 2 17 5 13 3 -3 4 -12 1 -19z m690 0 c-3 -8 -6 -5 -6 6 -1
11 2 17 5 13 3 -3 4 -12 1 -19z m1253 13 c0 -11 -24 -18 -65 -19 l-30 -1 35
14 c42 16 60 18 60 6z m-835 -21 c10 -11 16 -20 13 -20 -3 0 -13 9 -23 20 -10
11 -16 20 -13 20 3 0 13 -9 23 -20z m-798 -22 c-3 -8 -6 -5 -6 6 -1 11 2 17 5
13 3 -3 4 -12 1 -19z m706 -51 c-3 -5 1 -14 8 -19 10 -6 6 -7 -11 -3 -24 6
-24 6 5 -20 l30 -26 -37 23 c-21 13 -32 25 -27 27 6 2 -4 19 -23 39 l-33 35
36 -26 c51 -38 59 -33 18 11 l-34 37 37 -34 c21 -19 35 -38 31 -44z m1027 68
c0 -4 -50 -18 -110 -30 -54 -11 -28 5 32 20 60 15 78 17 78 10z m-1538 -76 c5
-3 6 -18 2 -34 -7 -27 -8 -26 -20 21 -15 57 -17 106 -2 54 5 -19 14 -38 20
-41z m912 62 c8 -12 -20 -22 -40 -14 -13 5 -13 7 -2 14 17 11 35 11 42 0z m51
-1 c3 -5 -1 -10 -9 -10 -8 0 -18 5 -21 10 -3 6 1 10 9 10 8 0 18 -4 21 -10z
m-177 -34 c18 -16 25 -18 31 -7 7 10 17 9 52 -7 43 -19 43 -19 11 -17 -18 1
-35 5 -39 9 -9 9 -23 8 -23 -2 0 -18 58 -35 125 -37 83 -3 155 -14 155 -24 0
-4 -17 -5 -37 -3 -29 2 -34 1 -23 -7 22 -16 -5 -14 -31 2 -17 9 -23 9 -26 0
-3 -8 -12 -9 -28 -3 -12 5 -25 7 -27 4 -3 -2 -21 2 -40 10 -20 9 -39 12 -43 8
-5 -4 -5 -2 -2 4 3 6 -16 28 -44 48 -27 21 -52 43 -56 49 -8 14 16 -1 45 -27z
m293 24 c13 -8 19 -7 19 0 0 6 5 8 11 5 6 -4 26 -7 45 -7 30 0 33 -2 18 -12
-15 -11 -11 -16 35 -44 28 -18 61 -33 74 -33 18 -1 19 -2 3 -6 -10 -3 -39 6
-65 20 -43 23 -55 24 -167 22 -95 -2 -124 1 -140 13 -16 12 -16 14 -1 9 19 -7
24 8 5 17 -7 3 1 4 17 0 17 -3 32 -10 33 -15 5 -12 182 -12 182 1 0 6 -10 10
-22 10 -28 0 -110 29 -85 30 10 0 27 -5 38 -10z m-1074 -22 c-3 -8 -6 -5 -6 6
-1 11 2 17 5 13 3 -3 4 -12 1 -19z m376 5 c4 -10 14 -29 23 -43 12 -18 7 -16
-15 8 -31 32 -39 52 -22 52 5 0 11 -8 14 -17z m172 -1 c-3 -3 -11 0 -18 7 -9
10 -8 11 6 5 10 -3 15 -9 12 -12z m-932 -127 c2 -66 3 -109 1 -95 -2 14 -9 48
-15 77 -8 42 -4 153 6 141 1 -2 5 -57 8 -123z m711 110 c-4 -8 -8 -15 -10 -15
-2 0 -4 7 -4 15 0 8 4 15 10 15 5 0 7 -7 4 -15z m358 -3 c9 -9 9 -12 0 -12 -7
0 -12 4 -12 10 0 5 -6 7 -14 4 -8 -3 -16 -1 -20 4 -8 13 32 8 46 -6z m513 8
c8 -13 -5 -13 -25 0 -13 8 -13 10 2 10 9 0 20 -4 23 -10z m-1568 -37 c-3 -10
-5 -4 -5 12 0 17 2 24 5 18 2 -7 2 -21 0 -30z m-170 5 c-3 -8 -6 -5 -6 6 -1
11 2 17 5 13 3 -3 4 -12 1 -19z m420 -20 c-3 -7 -5 -2 -5 12 0 14 2 19 5 13 2
-7 2 -19 0 -25z m765 15 c23 -28 33 -50 12 -28 -10 11 -25 26 -33 33 -8 6 -10
12 -4 12 5 0 17 -8 25 -17z m681 4 c-14 -6 -35 -6 -60 0 -37 10 -36 10 22 10
47 0 55 -2 38 -10z m54 7 c-3 -3 -12 -4 -19 -1 -8 3 -5 6 6 6 11 1 17 -2 13
-5z m-1987 -74 c-10 -6 -11 -28 -7 -91 6 -82 5 -83 -6 -31 -7 31 -16 50 -21
45 -5 -4 -6 3 -3 17 3 14 9 43 12 65 11 66 17 74 28 37 8 -26 7 -36 -3 -42z
m416 -21 c5 -80 5 -83 -10 -55 -18 32 -21 56 -7 56 5 0 5 16 1 37 -8 33 -4 61
6 50 2 -2 7 -42 10 -88z m410 35 c-3 -8 -1 -14 4 -14 6 0 10 -8 10 -17 0 -34
-24 7 -26 43 -1 27 1 32 8 19 6 -9 7 -23 4 -31z m167 26 c3 -11 3 -20 1 -20
-2 0 -8 9 -14 20 -6 11 -7 20 -2 20 6 0 12 -9 15 -20z m670 13 c-13 -2 -33 -2
-45 0 -13 2 -3 4 22 4 25 0 35 -2 23 -4z m-758 -51 c-3 -3 -5 1 -5 9 0 12 -2
11 -11 -1 -9 -12 -10 -12 -5 3 3 10 6 24 7 30 0 7 5 1 10 -12 5 -13 7 -26 4
-29z m-200 30 c6 -4 21 -19 34 -34 23 -26 23 -27 3 -25 -11 0 -19 4 -16 8 2 4
-8 19 -23 33 -25 23 -23 37 2 18z m359 -31 c-2 -2 0 -9 4 -16 4 -6 -3 1 -15
15 -28 30 -31 52 -4 24 10 -10 17 -21 15 -23z m-107 7 c-3 -8 -6 -5 -6 6 -1
11 2 17 5 13 3 -3 4 -12 1 -19z m388 -8 c10 -11 16 -20 13 -20 -3 0 -13 9 -23
20 -10 11 -16 20 -13 20 3 0 13 -9 23 -20z m141 5 c10 -8 15 -14 9 -14 -5 0
-19 6 -29 14 -11 8 -15 15 -10 15 6 0 19 -7 30 -15z m-466 -17 c0 -12 -3 -18
-7 -14 -11 10 -12 36 -2 36 5 0 9 -10 9 -22z m-92 -116 c18 -28 33 -55 34 -59
1 -23 22 -43 44 -43 l26 0 -23 20 c-13 10 -19 19 -14 19 15 0 45 -25 45 -38 0
-6 5 -11 11 -11 5 0 7 5 3 12 -4 7 -3 8 5 4 6 -4 9 -11 6 -16 -3 -5 13 -28 35
-50 23 -23 39 -44 36 -47 -3 -4 -1 -12 6 -20 6 -8 7 -13 2 -12 -32 6 -36 -2
-13 -28 l24 -28 -27 24 c-15 13 -25 27 -23 32 3 4 -4 10 -15 14 -11 4 -18 11
-15 16 4 5 2 9 -2 9 -5 0 -17 16 -27 35 -10 19 -21 34 -25 33 -22 -2 -34 6
-51 35 -11 17 -20 28 -20 23 0 -6 -7 -1 -15 10 -21 28 -18 5 5 -41 22 -43 69
-97 80 -90 4 2 20 -10 36 -28 l29 -32 -32 29 c-35 32 -44 26 -15 -9 9 -12 -4
1 -30 29 -27 27 -48 44 -48 37 0 -8 63 -76 141 -153 77 -77 139 -141 137 -143
-3 -4 -77 62 -169 151 -31 30 -59 54 -63 54 -16 0 -45 41 -40 57 4 13 3 14 -3
5 -7 -9 -16 -5 -37 17 -22 23 -24 29 -12 34 9 4 15 3 14 -1 -2 -12 14 -42 23
-42 11 0 -5 45 -47 134 -12 24 -12 26 1 16 9 -8 15 -8 15 -2 0 6 -11 19 -24
29 -16 13 -25 34 -30 67 -4 27 -10 56 -12 65 -3 9 5 -3 18 -25 13 -23 38 -65
56 -92z m378 97 c3 -6 -5 -3 -20 6 -14 10 -26 19 -26 22 0 7 39 -17 46 -28z
m269 5 c9 -9 14 -18 12 -21 -8 -7 -57 20 -51 28 8 13 21 11 39 -7z m498 -1
c-7 -2 -19 -2 -25 0 -7 3 -2 5 12 5 14 0 19 -2 13 -5z m-1019 -15 c-2 -4 6
-12 18 -19 20 -11 22 -10 10 3 -10 13 -10 17 1 21 9 3 13 -2 12 -16 -1 -15 15
-38 49 -69 28 -27 55 -48 60 -48 5 0 3 -6 -3 -14 -9 -11 -9 -16 0 -22 8 -5 10
-3 4 7 -5 8 -6 12 -2 9 3 -3 6 -9 7 -15 1 -5 9 -19 18 -29 15 -18 14 -18 -13
1 -53 37 -108 100 -100 114 6 9 3 10 -9 6 -10 -4 -15 -3 -11 3 3 6 0 10 -9 10
-8 0 -17 6 -20 13 -3 6 -4 0 -1 -15 3 -16 1 -28 -5 -28 -5 0 -10 9 -10 20 0
10 -9 28 -21 39 -24 22 -19 40 11 38 10 -1 17 -4 14 -9z m107 -5 c13 -17 13
-17 -6 -3 -11 8 -22 16 -24 17 -2 2 0 3 6 3 6 0 17 -8 24 -17z m299 -53 c0 -4
-27 6 -60 22 -33 17 -60 34 -60 39 0 4 27 -6 60 -23 33 -16 60 -34 60 -38z
m-1713 38 c-3 -8 -6 -5 -6 6 -1 11 2 17 5 13 3 -3 4 -12 1 -19z m550 -25 c-3
-10 -5 -4 -5 12 0 17 2 24 5 18 2 -7 2 -21 0 -30z m668 27 c3 -5 1 -10 -4 -10
-6 0 -11 5 -11 10 0 6 2 10 4 10 3 0 8 -4 11 -10z m489 -68 c2 -4 -4 -8 -14
-9 -10 -1 -21 5 -24 13 -3 7 -11 12 -18 9 -7 -2 -31 11 -53 30 l-40 35 72 -35
c40 -20 74 -39 77 -43z m-1517 36 c-3 -7 -5 -2 -5 12 0 14 2 19 5 13 2 -7 2
-19 0 -25z m400 10 c-3 -8 -6 -5 -6 6 -1 11 2 17 5 13 3 -3 4 -12 1 -19z
m-218 -98 c1 -20 -1 -22 -9 -10 -5 8 -9 40 -9 70 l2 55 8 -45 c4 -25 8 -56 8
-70z m695 94 c3 -8 2 -12 -4 -9 -6 3 -10 10 -10 16 0 14 7 11 14 -7z m-757
-16 c-3 -8 -6 -5 -6 6 -1 11 2 17 5 13 3 -3 4 -12 1 -19z m934 10 c0 -10 2
-10 5 -1 4 8 11 7 24 -4 10 -9 16 -21 13 -26 -3 -5 1 -13 8 -18 11 -7 11 -11
1 -17 -9 -7 -8 -13 8 -27 11 -10 23 -15 26 -12 4 4 -1 9 -10 13 -19 7 -22 25
-3 20 6 -1 9 -1 5 1 -5 3 -8 9 -8 15 0 6 6 5 15 -2 9 -7 13 -15 10 -18 -3 -3
9 -22 27 -41 18 -19 24 -29 13 -21 -11 8 -23 19 -27 25 -4 5 -10 7 -13 3 -3
-3 7 -19 22 -34 16 -16 24 -26 19 -21 -6 4 -15 7 -20 7 -6 0 12 -24 39 -52
l50 -53 -45 40 c-52 47 -60 57 -54 66 2 4 -11 19 -28 33 -63 50 -61 48 -47 56
9 6 4 17 -19 40 -34 34 -38 40 -22 40 6 0 10 -6 11 -12z m385 -39 c4 -8 1 -8
-14 0 -12 6 -24 16 -28 22 -4 8 -1 8 14 0 12 -6 24 -16 28 -22z m-100 -40 c4
-8 0 -7 -12 0 -29 17 -54 37 -54 45 0 9 57 -31 66 -45z m-1196 16 c0 -14 -4
-25 -10 -25 -11 0 -14 33 -3 43 11 11 13 8 13 -18z m680 -18 c0 -18 -2 -19
-10 -7 -13 20 -13 43 0 35 6 -3 10 -16 10 -28z m548 8 c-3 -3 -9 2 -12 12 -6
14 -5 15 5 6 7 -7 10 -15 7 -18z m-1276 -40 c0 -20 -3 -39 -6 -42 -3 -4 -6 15
-6 42 0 27 3 46 6 42 3 -3 6 -22 6 -42z m852 29 c3 -8 2 -12 -4 -9 -6 3 -10
10 -10 16 0 14 7 11 14 -7z m562 -6 l19 -21 -27 18 c-29 18 -34 25 -20 25 5 0
17 -10 28 -22z m-71 -8 c10 -11 16 -20 13 -20 -3 0 -13 9 -23 20 -10 11 -16
20 -13 20 3 0 13 -9 23 -20z m-1538 -57 c-2 -16 -4 -5 -4 22 0 28 2 40 4 28 2
-13 2 -35 0 -50z m1493 41 c0 -2 -9 0 -20 6 -11 6 -20 13 -20 16 0 2 9 0 20
-6 11 -6 20 -13 20 -16z m51 -27 c23 -28 26 -36 10 -22 -26 23 -71 82 -54 72
6 -4 26 -26 44 -50z m-1301 -16 c0 -45 -6 -37 -14 19 -4 31 -3 40 4 30 5 -8
10 -30 10 -49z m1204 1 c19 -27 19 -27 -12 2 -35 32 -38 38 -19 30 6 -3 21
-17 31 -32z m982 6 c14 -28 15 -31 2 -20 -14 11 -31 52 -22 52 2 0 11 -15 20
-32z m-2129 -10 c-3 -7 -5 -2 -5 12 0 14 2 19 5 13 2 -7 2 -19 0 -25z m1324
15 c13 -16 12 -17 -3 -4 -17 13 -22 21 -14 21 2 0 10 -8 17 -17z m-543 -18
c-3 -3 -9 2 -12 12 -6 14 -5 15 5 6 7 -7 10 -15 7 -18z m-868 -23 c0 -11 9
-27 20 -37 11 -10 20 -26 20 -37 0 -29 -16 -21 -28 15 -10 32 -10 32 -12 -18
-3 -48 -3 -49 -10 -15 l-7 35 -2 -37 c0 -20 -5 -40 -11 -43 -15 -9 -12 37 4
77 8 19 12 45 9 56 -3 13 -1 22 6 22 6 0 11 -8 11 -18z m-33 -29 c-3 -10 -5
-4 -5 12 0 17 2 24 5 18 2 -7 2 -21 0 -30z m-90 -25 c-2 -13 -4 -5 -4 17 -1
22 1 32 4 23 2 -10 2 -28 0 -40z m1111 27 c-3 -3 -9 2 -12 12 -6 14 -5 15 5 6
7 -7 10 -15 7 -18z m-190 -242 c16 -23 18 -33 10 -41 -9 -9 -8 -12 4 -12 18 0
33 -30 21 -39 -12 -8 -10 -30 2 -39 6 -4 18 -19 28 -34 15 -24 15 -27 1 -21
-14 5 -14 2 1 -28 16 -30 11 -27 -34 21 -29 30 -57 64 -63 74 -10 18 -11 18
-20 3 -11 -20 -1 -40 14 -31 7 5 8 2 3 -6 -5 -8 -1 -18 10 -27 14 -10 16 -16
7 -23 -6 -6 -10 -7 -7 -4 2 4 -11 25 -29 48 -34 42 -52 86 -35 86 5 0 9 -9 9
-19 0 -19 19 -40 21 -24 7 42 5 61 -7 80 -7 12 -10 24 -6 27 5 3 16 -17 26
-43 9 -26 34 -68 56 -92 41 -45 56 -47 20 -2 -11 14 -17 29 -14 34 3 5 -1 6
-9 3 -8 -3 -17 2 -21 12 -4 11 -2 15 8 11 23 -9 27 5 6 20 -11 8 -20 21 -20
29 0 8 -5 14 -11 14 -6 0 -9 7 -5 15 5 15 -7 49 -63 166 -51 109 -34 92 23
-22 29 -59 62 -120 74 -136z m-168 198 c5 -11 10 -31 10 -45 0 -13 6 -27 13
-29 9 -4 9 -6 -1 -6 -7 -1 -17 9 -22 22 -11 27 -3 -60 11 -113 12 -46 11 -83
-1 -75 -5 3 -7 12 -4 20 3 7 0 24 -7 37 -7 13 -14 43 -16 68 -1 25 -4 66 -6
93 -4 49 5 61 23 28z m-501 -34 c1 -5 -3 -5 -9 -2 -5 3 -10 16 -9 28 0 21 1
21 9 2 5 -11 9 -24 9 -28z m795 -12 l38 -50 -41 43 c-23 24 -41 49 -41 55 0 5
1 8 3 6 1 -2 20 -26 41 -54z m-763 -18 c-8 -8 -11 0 -10 29 1 39 1 39 11 11 7
-21 7 -32 -1 -40z m26 16 c-3 -10 -5 -2 -5 17 0 19 2 27 5 18 2 -10 2 -26 0
-35z m560 15 c-3 -8 -6 -5 -6 6 -1 11 2 17 5 13 3 -3 4 -12 1 -19z m-19 -97
c22 -63 12 -56 -25 19 -50 100 -50 101 -16 55 16 -22 35 -55 41 -74z m67 79
l20 -25 -22 19 c-13 11 -23 24 -23 29 0 6 1 8 3 6 1 -2 11 -15 22 -29z m77
-47 c11 -24 24 -43 29 -43 5 0 9 -5 9 -11 0 -23 -27 11 -59 73 -17 35 -24 54
-15 43 8 -11 25 -39 36 -62z m209 2 l44 -50 -41 35 c-23 19 -44 43 -47 53 -3
11 -4 17 -3 15 1 -1 22 -25 47 -53z m-604 13 c-3 -7 -5 -2 -5 12 0 14 2 19 5
13 2 -7 2 -19 0 -25z m-587 -30 c0 -5 -4 -7 -9 -4 -5 4 -12 0 -15 -6 -4 -7 -4
-2 -2 11 3 14 2 30 -2 36 -4 6 1 2 11 -8 9 -11 17 -23 17 -29z m287 -7 c0 -27
6 -65 13 -85 6 -20 9 -43 6 -51 -3 -8 -1 -15 4 -15 6 0 10 -15 9 -32 0 -28 -2
-30 -9 -13 -7 17 -9 16 -9 -9 -2 -60 -14 -13 -27 101 -7 70 -9 119 -3 121 5 2
9 10 9 18 0 8 1 14 3 14 2 0 4 -22 4 -49z m390 17 c-3 -7 -5 -2 -5 12 0 14 2
19 5 13 2 -7 2 -19 0 -25z m873 -14 c0 -9 -37 15 -51 33 -10 12 -5 11 19 -6
17 -12 32 -24 32 -27z m-45 6 c10 -11 16 -20 13 -20 -3 0 -13 9 -23 20 -10 11
-16 20 -13 20 3 0 13 -9 23 -20z m-1176 -47 c-1 -55 -1 -56 -11 -24 -9 31 -4
81 7 81 3 0 5 -26 4 -57z m216 -24 c5 -42 4 -41 -10 11 -17 65 -17 70 -5 49 5
-9 12 -36 15 -60z m410 -45 l35 -79 -30 34 c-16 19 -27 38 -24 43 3 5 -6 29
-20 54 -14 26 -26 51 -26 57 0 20 28 -28 65 -109z m18 63 c-3 -5 -11 4 -19 18
-20 38 -17 45 5 15 11 -13 17 -28 14 -33z m186 6 c2 -2 0 -3 -6 -3 -6 0 -21 9
-34 21 l-24 20 30 -17 c17 -10 32 -19 34 -21z m-979 6 c0 -5 -4 -9 -10 -9 -5
0 -10 7 -10 16 0 8 5 12 10 9 6 -3 10 -10 10 -16z m912 7 c3 2 30 -18 59 -45
30 -28 49 -51 44 -51 -6 0 -28 18 -50 40 -21 21 -41 37 -45 35 -4 -3 -16 5
-26 18 -12 13 -13 17 -3 9 9 -6 18 -9 21 -6z m472 -35 c-3 -3 -15 6 -27 18
l-22 24 27 -19 c14 -10 24 -21 22 -23z m-1497 7 c-3 -8 -6 -5 -6 6 -1 11 2 17
5 13 3 -3 4 -12 1 -19z m430 -15 c-3 -10 -5 -4 -5 12 0 17 2 24 5 18 2 -7 2
-21 0 -30z m-140 -15 c-3 -7 -5 -2 -5 12 0 14 2 19 5 13 2 -7 2 -19 0 -25z
m240 0 c-3 -8 -6 -5 -6 6 -1 11 2 17 5 13 3 -3 4 -12 1 -19z m465 -43 c9 -16
6 -16 -17 5 -15 14 -32 34 -37 45 -9 16 -6 16 17 -5 15 -14 32 -34 37 -45z
m564 24 c3 -6 -5 -3 -20 6 -14 10 -26 19 -26 22 0 7 39 -17 46 -28z m-1377
-56 c1 -13 -3 -23 -9 -23 -5 0 -10 19 -9 43 0 32 2 37 9 22 5 -11 9 -30 9 -42z
m1019 7 c26 -16 43 -30 39 -30 -13 0 -85 39 -92 50 -10 16 2 12 53 -20z m-731
-2 c-3 -8 -6 -5 -6 6 -1 11 2 17 5 13 3 -3 4 -12 1 -19z m152 -37 c1 -35 -5
-22 -12 24 -5 28 -4 34 3 20 5 -11 9 -31 9 -44z m76 21 c-6 -6 -35 18 -35 29
0 5 9 1 20 -8 11 -9 17 -19 15 -21z m-637 -47 c0 -16 -2 -15 -8 5 -11 34 -11
60 0 35 5 -11 8 -29 8 -40z m867 -6 c30 -47 33 -61 5 -26 -11 14 -20 30 -20
36 0 6 -4 11 -9 11 -5 0 -12 7 -15 16 -10 26 13 5 39 -37z m-190 3 c-3 -8 3
-16 15 -19 11 -3 20 -11 20 -19 0 -7 16 -25 36 -40 30 -23 74 -84 60 -84 -2 0
-10 -2 -18 -5 -8 -3 -14 4 -14 21 -1 14 -9 31 -18 37 -8 7 -27 27 -41 46 -15
21 -25 29 -25 19 0 -8 7 -21 15 -28 8 -7 12 -16 9 -21 -3 -5 6 -20 20 -33 31
-28 35 -47 5 -20 -25 22 -70 91 -73 110 -1 8 -5 17 -9 20 -4 4 -7 18 -7 32 0
21 2 23 15 12 9 -7 13 -20 10 -28z m-838 -14 c-3 -8 -6 -5 -6 6 -1 11 2 17 5
13 3 -3 4 -12 1 -19z m453 -4 c0 -8 -4 -14 -10 -14 -5 0 -10 9 -10 21 0 11 5
17 10 14 6 -3 10 -13 10 -21z m-96 -29 c5 -22 4 -26 -4 -15 -5 8 -10 24 -10
34 0 26 6 18 14 -19z m-358 -12 c-10 -10 -19 5 -10 18 6 11 8 11 12 0 2 -7 1
-15 -2 -18z m-336 -23 c-11 -22 -23 -40 -25 -40 -3 0 4 18 15 40 11 22 23 40
25 40 3 0 -4 -18 -15 -40z m794 15 c-4 -8 -8 -15 -10 -15 -2 0 -4 7 -4 15 0 8
4 15 10 15 5 0 7 -7 4 -15z m-185 -65 c1 -26 -2 -31 -9 -20 -5 8 -9 33 -9 55
0 31 2 36 9 20 5 -11 9 -36 9 -55z m229 -5 l1 -20 -9 20 c-6 14 -9 16 -10 5
-1 -8 -6 -4 -10 10 -11 34 -11 60 0 35 8 -18 9 -18 10 5 2 24 3 23 10 -5 4
-16 8 -39 8 -50z m379 -10 c65 -75 52 -80 -16 -6 -36 39 -57 70 -54 79 5 11 8
11 16 -4 6 -11 30 -41 54 -69z m78 64 c11 -17 -1 -21 -15 -4 -8 9 -8 15 -2 15
6 0 14 -5 17 -11z m45 -116 l25 -27 -32 19 c-18 11 -33 23 -33 27 0 15 15 8
40 -19z m-592 -88 c0 -29 0 -29 -8 -5 -4 14 -8 39 -8 55 0 29 0 29 8 5 4 -14
8 -38 8 -55z m-361 28 c-3 -10 -5 -4 -5 12 0 17 2 24 5 18 2 -7 2 -21 0 -30z
m430 -5 c-3 -7 -5 -2 -5 12 0 14 2 19 5 13 2 -7 2 -19 0 -25z m-420 -50 c-3
-7 -5 -2 -5 12 0 14 2 19 5 13 2 -7 2 -19 0 -25z m743 -19 c0 -6 -4 -7 -10 -4
-5 3 -10 11 -10 16 0 6 5 7 10 4 6 -3 10 -11 10 -16z m-350 -103 c6 -6 10 -15
10 -20 0 -6 -5 -4 -10 4 -9 13 -10 13 -11 0 -1 -24 -28 82 -28 110 0 14 7 0
15 -30 8 -30 19 -59 24 -64z m-53 52 c-3 -7 -5 -2 -5 12 0 14 2 19 5 13 2 -7
2 -19 0 -25z m12 -74 c5 -18 6 -34 1 -34 -6 0 -23 49 -38 110 -6 29 27 -41 37
-76z m125 11 c13 -31 14 -37 3 -25 -8 8 -18 28 -22 45 -9 38 -2 31 19 -20z
m-104 -65 c0 -5 -2 -10 -4 -10 -3 0 -8 5 -11 10 -3 6 -1 10 4 10 6 0 11 -4 11
-10z m23 -55 c4 -8 2 -17 -3 -20 -6 -4 -10 3 -10 14 0 25 6 27 13 6z m-43 -84
c5 -18 5 -33 -1 -36 -5 -4 -9 2 -9 12 0 10 -3 29 -7 43 -9 36 6 19 17 -19z
m-121 -46 c0 -11 -7 0 -15 25 -17 56 -17 64 1 25 8 -16 14 -39 14 -50z m161
54 c0 -6 -4 -7 -10 -4 -5 3 -10 11 -10 16 0 6 5 7 10 4 6 -3 10 -11 10 -16z
m-205 -60 l5 -44 -14 50 c-17 58 -19 77 -6 54 5 -9 12 -36 15 -60z m129 -87
c9 -31 14 -58 12 -60 -6 -5 -66 167 -65 186 1 24 36 -58 53 -126z m-197 106
c-3 -8 -6 -5 -6 6 -1 11 2 17 5 13 3 -3 4 -12 1 -19z m294 -28 c10 -22 15 -40
10 -40 -8 0 -41 65 -41 82 0 17 11 2 31 -42z m349 -11 c0 -6 -4 -7 -10 -4 -5
3 -10 11 -10 16 0 6 5 7 10 4 6 -3 10 -11 10 -16z m-657 -119 c3 -39 2 -55 -3
-40 -8 25 -13 117 -6 109 2 -2 6 -33 9 -69z m118 -23 c-8 -8 -11 2 -10 33 l1
45 10 -34 c6 -23 6 -37 -1 -44z m247 28 c-3 -3 -9 2 -12 12 -6 14 -5 15 5 6 7
-7 10 -15 7 -18z"/>
<path d="M4695 4485 c-16 -13 -27 -27 -24 -29 3 -3 18 8 34 24 35 36 31 38
-10 5z"/>
<path d="M4450 4450 c0 -6 7 -10 15 -10 8 0 15 2 15 4 0 2 -7 6 -15 10 -8 3
-15 1 -15 -4z"/>
<path d="M2666 4913 c-4 -9 -2 -21 4 -27 7 -7 10 -2 10 17 0 31 -5 34 -14 10z"/>
<path d="M2530 4912 c0 -4 7 -17 15 -28 8 -12 12 -23 10 -26 -3 -3 4 -13 15
-23 17 -16 17 -12 -5 34 -23 47 -35 62 -35 43z"/>
<path d="M2827 4881 c-2 -11 1 -22 7 -24 7 -3 12 3 11 14 -2 27 -12 33 -18 10z"/>
<path d="M2818 4798 c-16 -5 -28 -14 -28 -19 0 -6 6 -7 13 -2 6 4 41 13 77 19
l65 12 -50 0 c-27 0 -62 -4 -77 -10z"/>
<path d="M3388 4523 c6 -2 18 -2 25 0 6 3 1 5 -13 5 -14 0 -19 -2 -12 -5z"/>
<path d="M3445 4510 c11 -4 35 -11 54 -15 28 -6 32 -5 21 6 -7 8 -31 15 -54
15 -28 1 -35 -1 -21 -6z"/>
<path d="M2250 4826 c0 -2 9 -6 20 -9 11 -3 18 -1 14 4 -5 9 -34 13 -34 5z"/>
<path d="M2366 4802 c-10 -17 11 -35 29 -24 17 9 17 10 -3 21 -11 6 -23 7 -26
3z"/>
<path d="M2327 4789 c7 -7 15 -10 18 -7 3 3 -2 9 -12 12 -14 6 -15 5 -6 -5z"/>
<path d="M2280 4780 c8 -5 20 -10 25 -10 6 0 3 5 -5 10 -8 5 -19 10 -25 10 -5
0 -3 -5 5 -10z"/>
<path d="M2350 4760 c0 -5 5 -10 11 -10 5 0 7 5 4 10 -3 6 -8 10 -11 10 -2 0
-4 -4 -4 -10z"/>
<path d="M4840 4334 c0 -8 5 -12 10 -9 6 3 10 10 10 16 0 5 -4 9 -10 9 -5 0
-10 -7 -10 -16z"/>
<path d="M4814 4322 c3 -5 0 -13 -6 -15 -8 -3 -6 -6 5 -6 19 -1 23 14 5 25 -6
4 -8 3 -4 -4z"/>
<path d="M4955 4310 c-16 -7 -17 -9 -3 -9 9 -1 20 4 23 9 7 11 7 11 -20 0z"/>
<path d="M4902 4303 c-7 -2 -17 -13 -22 -24 -8 -14 -7 -17 2 -14 11 4 45 47
36 44 -2 0 -9 -3 -16 -6z"/>
<path d="M4670 4255 c0 -18 19 -40 26 -32 4 4 0 15 -9 24 -9 10 -17 13 -17 8z"/>
<path d="M4768 4253 c7 -3 16 -2 19 1 4 3 -2 6 -13 5 -11 0 -14 -3 -6 -6z"/>
<path d="M4966 4247 c3 -10 9 -15 12 -12 3 3 0 11 -7 18 -10 9 -11 8 -5 -6z"/>
<path d="M4805 4210 c3 -5 8 -10 11 -10 2 0 4 5 4 10 0 6 -5 10 -11 10 -5 0
-7 -4 -4 -10z"/>
<path d="M4660 4200 c0 -5 5 -10 11 -10 5 0 7 5 4 10 -3 6 -8 10 -11 10 -2 0
-4 -4 -4 -10z"/>
<path d="M4700 4199 c0 -5 5 -7 10 -4 6 3 10 8 10 11 0 2 -4 4 -10 4 -5 0 -10
-5 -10 -11z"/>
<path d="M4995 4180 c3 -5 8 -10 11 -10 2 0 4 5 4 10 0 6 -5 10 -11 10 -5 0
-7 -4 -4 -10z"/>
<path d="M4600 4150 c0 -5 5 -10 11 -10 5 0 7 5 4 10 -3 6 -8 10 -11 10 -2 0
-4 -4 -4 -10z"/>
<path d="M4553 4116 c3 -8 2 -17 -4 -20 -5 -2 -4 -3 3 -2 17 3 23 36 8 36 -7
0 -10 -6 -7 -14z"/>
<path d="M4550 3785 c0 -9 6 -12 15 -9 8 4 12 10 9 15 -8 14 -24 10 -24 -6z"/>
<path d="M4750 3780 c0 -5 5 -10 11 -10 5 0 7 5 4 10 -3 6 -8 10 -11 10 -2 0
-4 -4 -4 -10z"/>
<path d="M4605 3770 c11 -5 29 -8 40 -8 16 0 15 2 -5 8 -34 11 -60 11 -35 0z"/>
<path d="M2960 4239 c0 -10 27 -19 34 -12 12 12 5 22 -14 20 -11 -1 -20 -4
-20 -8z"/>
<path d="M3048 4133 c-10 -2 -18 -9 -18 -14 0 -11 39 -2 55 12 9 9 -6 10 -37
2z"/>
<path d="M2962 4083 c-24 -14 -41 -28 -38 -31 3 -2 12 0 19 6 8 7 17 9 20 6 3
-3 18 6 34 20 35 32 21 32 -35 -1z"/>
<path d="M2907 4029 c7 -7 15 -10 18 -7 3 3 -2 9 -12 12 -14 6 -15 5 -6 -5z"/>
<path d="M2850 4010 c-9 -6 -10 -10 -3 -10 6 0 15 5 18 10 8 12 4 12 -15 0z"/>
<path d="M2945 4010 c-3 -5 -2 -10 4 -10 5 0 13 5 16 10 3 6 2 10 -4 10 -5 0
-13 -4 -16 -10z"/>
<path d="M2830 3970 c-8 -5 -10 -10 -5 -10 6 0 17 5 25 10 8 5 11 10 5 10 -5
0 -17 -5 -25 -10z"/>
<path d="M2832 3941 c-8 -4 -13 -12 -12 -17 1 -4 -7 -12 -17 -16 -13 -6 -11
-7 7 -3 14 2 30 5 37 5 6 0 11 9 10 20 -1 22 -5 24 -25 11z"/>
<path d="M2763 3878 c-39 -8 -60 -28 -31 -28 20 0 78 24 78 32 0 4 -1 8 -2 7
-2 -1 -22 -5 -45 -11z"/>
<path d="M2560 3780 c0 -5 7 -10 16 -10 8 0 12 5 9 10 -3 6 -10 10 -16 10 -5
0 -9 -4 -9 -10z"/>
<path d="M1380 3595 c0 -16 16 -20 24 -6 3 5 -1 11 -9 15 -9 3 -15 0 -15 -9z"/>
<path d="M1318 3593 c7 -3 16 -2 19 1 4 3 -2 6 -13 5 -11 0 -14 -3 -6 -6z"/>
<path d="M1288 3573 c6 -3 10 -9 6 -14 -7 -12 -1 -11 31 5 l27 14 -39 0 c-21
0 -32 -3 -25 -5z"/>
<path d="M1155 3560 c-3 -5 -2 -10 4 -10 5 0 13 5 16 10 3 6 2 10 -4 10 -5 0
-13 -4 -16 -10z"/>
<path d="M1220 3530 c-20 -16 -22 -20 -7 -20 9 0 17 5 17 10 0 6 7 10 15 10 8
0 15 5 15 10 0 15 -12 12 -40 -10z"/>
<path d="M1550 3389 c0 -5 5 -7 10 -4 6 3 10 8 10 11 0 2 -4 4 -10 4 -5 0 -10
-5 -10 -11z"/>
<path d="M315 3310 c3 -5 8 -10 11 -10 2 0 4 5 4 10 0 6 -5 10 -11 10 -5 0 -7
-4 -4 -10z"/>
<path d="M1535 3240 c-16 -17 -24 -30 -19 -30 13 0 59 48 52 55 -2 3 -17 -9
-33 -25z"/>
<path d="M1385 2930 c3 -5 8 -10 11 -10 2 0 4 5 4 10 0 6 -5 10 -11 10 -5 0
-7 -4 -4 -10z"/>
<path d="M710 2830 c0 -5 5 -10 11 -10 5 0 7 5 4 10 -3 6 -8 10 -11 10 -2 0
-4 -4 -4 -10z"/>
<path d="M1090 2796 c0 -2 7 -7 16 -10 8 -3 12 -2 9 4 -6 10 -25 14 -25 6z"/>
<path d="M3591 2741 c-7 -5 -12 -14 -10 -20 2 -6 10 -2 17 9 14 22 13 23 -7
11z"/>
<path d="M3405 2170 c3 -5 8 -10 11 -10 2 0 4 5 4 10 0 6 -5 10 -11 10 -5 0
-7 -4 -4 -10z"/>
<path d="M3738 2203 c7 -3 16 -2 19 1 4 3 -2 6 -13 5 -11 0 -14 -3 -6 -6z"/>
<path d="M4296 1861 c-3 -5 0 -11 7 -14 8 -3 14 1 14 9 0 16 -13 19 -21 5z"/>
<path d="M4075 1810 c-27 -7 -28 -8 -5 -8 14 0 34 3 45 8 25 11 2 11 -40 0z"/>
<path d="M3815 1650 c3 -5 11 -10 16 -10 6 0 7 5 4 10 -3 6 -11 10 -16 10 -6
0 -7 -4 -4 -10z"/>
<path d="M3204 1503 c20 -36 55 -81 56 -70 0 9 -61 97 -67 97 -2 0 3 -12 11
-27z"/>
<path d="M3391 1308 c6 -13 19 -29 29 -36 30 -18 19 13 -13 38 l-27 22 11 -24z"/>
<path d="M3317 1509 c7 -7 15 -10 18 -7 3 3 -2 9 -12 12 -14 6 -15 5 -6 -5z"/>
<path d="M2820 925 c0 -14 4 -25 9 -25 4 0 6 11 3 25 -2 14 -6 25 -8 25 -2 0
-4 -11 -4 -25z"/>
<path d="M2875 842 c-4 -20 -1 -41 10 -62 11 -21 13 -36 7 -42 -7 -7 -12 1
-17 21 -3 17 -10 33 -15 36 -10 6 3 -45 19 -72 8 -14 11 -15 11 -3 1 8 7 2 15
-15 16 -35 20 -28 5 9 -13 36 -6 32 20 -10 12 -19 25 -33 27 -30 3 3 -2 17
-11 30 -20 32 -21 42 0 25 11 -9 9 -1 -6 30 -13 23 -25 40 -27 37 -3 -2 1 -14
7 -26 6 -12 9 -24 6 -27 -3 -3 -15 15 -26 41 -23 54 -24 60 -10 51 12 -8 13 5
1 24 -7 10 -11 6 -16 -17z"/>
<path d="M2920 833 c0 -5 7 -18 15 -29 13 -18 14 -18 8 4 -5 22 -23 41 -23 25z"/>
<path d="M2952 760 c7 -10 14 -18 15 -16 6 6 -9 36 -18 36 -5 0 -4 -9 3 -20z"/>
<path d="M2870 646 c0 -3 9 -10 20 -16 11 -6 20 -8 20 -6 0 3 -9 10 -20 16
-11 6 -20 8 -20 6z"/>
<path d="M2780 555 c0 -5 5 -17 10 -25 5 -8 10 -10 10 -5 0 6 -5 17 -10 25 -5
8 -10 11 -10 5z"/>
<path d="M2895 520 c3 -5 8 -10 11 -10 2 0 4 5 4 10 0 6 -5 10 -11 10 -5 0 -7
-4 -4 -10z"/>
<path d="M2835 479 c9 -17 19 -29 21 -26 7 7 -18 57 -28 57 -5 0 -1 -14 7 -31z"/>
<path d="M2800 494 c0 -5 7 -19 15 -30 8 -10 15 -14 15 -8 0 5 -7 19 -15 30
-8 10 -15 14 -15 8z"/>
<path d="M2975 120 c35 -43 42 -49 50 -42 5 4 5 2 2 -5 -10 -17 44 -73 70 -73
33 0 28 11 -24 50 -25 19 -53 42 -62 50 -9 8 -26 22 -36 30 -19 14 -19 14 0
-10z"/>
<path d="M2660 105 c0 -8 5 -15 10 -15 6 0 10 7 10 15 0 8 -4 15 -10 15 -5 0
-10 -7 -10 -15z"/>
<path d="M1640 80 c0 -5 5 -10 11 -10 5 0 7 5 4 10 -3 6 -8 10 -11 10 -2 0 -4
-4 -4 -10z"/>
<path d="M2670 75 c0 -2 8 -20 17 -40 17 -36 43 -48 43 -19 0 8 -5 12 -11 9
-5 -4 -15 7 -22 24 -9 26 -27 43 -27 26z"/>
<path d="M2989 62 c6 -12 9 -22 6 -22 -3 0 -1 -9 5 -20 6 -12 21 -20 35 -20
22 0 24 3 14 18 -6 9 -25 28 -42 41 -29 24 -29 24 -18 3z"/>
<path d="M2960 15 c7 -8 17 -15 22 -15 6 0 5 7 -2 15 -7 8 -17 15 -22 15 -6 0
-5 -7 2 -15z"/>
</g>
</svg>
