<?xml version="1.0" standalone="no"?>
<!DOCTYPE svg PUBLIC "-//W3C//DTD SVG 20010904//EN"
 "http://www.w3.org/TR/2001/REC-SVG-20010904/DTD/svg10.dtd">
<svg version="1.0" xmlns="http://www.w3.org/2000/svg"
 width="1600.000000pt" height="1600.000000pt" viewBox="0 0 1600.000000 1600.000000"
 preserveAspectRatio="xMidYMid meet">

<g transform="translate(0.000000,1600.000000) scale(0.100000,-0.100000)"
fill="#000000" stroke="none">
<path d="M3880 14193 c-236 -37 -431 -133 -584 -286 -126 -126 -224 -298 -268
-473 l-23 -89 0 -5345 0 -5345 23 -90 c31 -123 115 -291 197 -392 113 -141
288 -262 462 -322 161 -54 -104 -51 4313 -51 3590 0 4088 2 4164 15 421 73
749 402 821 823 13 77 15 704 13 5402 l-3 5315 -23 85 c-27 100 -93 243 -153
331 -127 188 -344 337 -584 402 l-80 22 -4125 1 c-2269 1 -4136 0 -4150 -3z
m8262 -412 c117 -30 193 -73 279 -160 87 -86 130 -162 160 -279 19 -74 19
-170 19 -5342 0 -5212 0 -5268 -20 -5344 -29 -113 -73 -190 -160 -276 -86 -87
-163 -131 -276 -160 -76 -20 -127 -20 -4144 -20 -4017 0 -4068 0 -4144 20
-113 29 -190 73 -276 160 -87 86 -131 163 -160 276 -20 76 -20 132 -20 5344 0
5172 0 5268 19 5342 30 117 73 193 160 279 85 85 161 129 275 159 69 18 199
19 4142 19 3991 1 4072 1 4146 -18z"/>
<path d="M4200 12000 l0 -1000 3800 0 3800 0 0 1000 0 1000 -3800 0 -3800 0 0
-1000z m7200 0 l0 -600 -3400 0 -3400 0 0 600 0 600 3400 0 3400 0 0 -600z"/>
<path d="M3932 9989 c-48 -14 -109 -80 -123 -131 -23 -89 12 -182 88 -229 57
-36 154 -34 210 3 62 41 88 90 88 168 0 77 -26 127 -85 166 -43 29 -125 39
-178 23z"/>
<path d="M4732 9989 c-48 -14 -109 -80 -123 -131 -23 -89 12 -182 88 -229 57
-36 154 -34 210 3 62 41 88 90 88 168 0 77 -26 127 -85 166 -43 29 -125 39
-178 23z"/>
<path d="M5532 9989 c-48 -14 -109 -80 -123 -131 -23 -89 12 -182 88 -229 57
-36 154 -34 210 3 62 41 88 90 88 168 0 77 -26 127 -85 166 -43 29 -125 39
-178 23z"/>
<path d="M6332 9989 c-48 -14 -109 -80 -123 -131 -23 -89 12 -182 88 -229 57
-36 154 -34 210 3 62 41 88 90 88 168 0 77 -26 127 -85 166 -43 29 -125 39
-178 23z"/>
<path d="M7132 9989 c-48 -14 -109 -80 -123 -131 -23 -89 12 -182 88 -229 57
-36 154 -34 210 3 62 41 88 90 88 168 0 77 -26 127 -85 166 -43 29 -125 39
-178 23z"/>
<path d="M7932 9989 c-48 -14 -109 -80 -123 -131 -23 -89 12 -182 88 -229 57
-36 154 -34 210 3 62 41 88 90 88 168 0 77 -26 127 -85 166 -43 29 -125 39
-178 23z"/>
<path d="M8732 9989 c-48 -14 -109 -80 -123 -131 -23 -89 12 -182 88 -229 57
-36 154 -34 210 3 62 41 88 90 88 168 0 77 -26 127 -85 166 -43 29 -125 39
-178 23z"/>
<path d="M9532 9989 c-48 -14 -109 -80 -123 -131 -23 -89 12 -182 88 -229 57
-36 154 -34 210 3 62 41 88 90 88 168 0 77 -26 127 -85 166 -43 29 -125 39
-178 23z"/>
<path d="M10332 9989 c-48 -14 -109 -80 -123 -131 -23 -89 12 -182 88 -229 57
-36 154 -34 210 3 62 41 88 90 88 168 0 77 -26 127 -85 166 -43 29 -125 39
-178 23z"/>
<path d="M11132 9989 c-48 -14 -109 -80 -123 -131 -23 -89 12 -182 88 -229 57
-36 154 -34 210 3 62 41 88 90 88 168 0 77 -26 127 -85 166 -43 29 -125 39
-178 23z"/>
<path d="M11932 9989 c-48 -14 -109 -80 -123 -131 -23 -89 12 -182 88 -229 57
-36 154 -34 210 3 62 41 88 90 88 168 0 77 -26 127 -85 166 -43 29 -125 39
-178 23z"/>
<path d="M4200 7800 l0 -800 800 0 800 0 0 800 0 800 -800 0 -800 0 0 -800z
m1200 0 l0 -400 -400 0 -400 0 0 400 0 400 400 0 400 0 0 -400z"/>
<path d="M6200 7800 l0 -800 800 0 800 0 0 800 0 800 -800 0 -800 0 0 -800z
m1200 0 l0 -400 -400 0 -400 0 0 400 0 400 400 0 400 0 0 -400z"/>
<path d="M8200 7800 l0 -800 800 0 800 0 0 800 0 800 -800 0 -800 0 0 -800z
m1200 0 l0 -400 -400 0 -400 0 0 400 0 400 400 0 400 0 0 -400z"/>
<path d="M10200 7800 l0 -800 800 0 800 0 0 800 0 800 -800 0 -800 0 0 -800z
m1200 0 l0 -400 -400 0 -400 0 0 400 0 400 400 0 400 0 0 -400z"/>
<path d="M4200 5800 l0 -800 800 0 800 0 0 800 0 800 -800 0 -800 0 0 -800z
m1200 0 l0 -400 -400 0 -400 0 0 400 0 400 400 0 400 0 0 -400z"/>
<path d="M6200 5800 l0 -800 800 0 800 0 0 800 0 800 -800 0 -800 0 0 -800z
m1200 0 l0 -400 -400 0 -400 0 0 400 0 400 400 0 400 0 0 -400z"/>
<path d="M8200 5800 l0 -800 800 0 800 0 0 800 0 800 -800 0 -800 0 0 -800z
m1200 0 l0 -400 -400 0 -400 0 0 400 0 400 400 0 400 0 0 -400z"/>
<path d="M10200 5800 l0 -800 800 0 800 0 0 800 0 800 -800 0 -800 0 0 -800z
m1200 0 l0 -400 -400 0 -400 0 0 400 0 400 400 0 400 0 0 -400z"/>
<path d="M4200 3800 l0 -800 800 0 800 0 0 800 0 800 -800 0 -800 0 0 -800z
m1200 0 l0 -400 -400 0 -400 0 0 400 0 400 400 0 400 0 0 -400z"/>
<path d="M6200 3800 l0 -800 800 0 800 0 0 800 0 800 -800 0 -800 0 0 -800z
m1200 0 l0 -400 -400 0 -400 0 0 400 0 400 400 0 400 0 0 -400z"/>
<path d="M8200 3800 l0 -800 800 0 800 0 0 800 0 800 -800 0 -800 0 0 -800z
m1200 0 l0 -400 -400 0 -400 0 0 400 0 400 400 0 400 0 0 -400z"/>
<path d="M10200 3800 l0 -800 800 0 800 0 0 800 0 800 -800 0 -800 0 0 -800z
m1200 0 l0 -400 -400 0 -400 0 0 400 0 400 400 0 400 0 0 -400z"/>
</g>
</svg>
